<?xml version="1.0" encoding="utf-8" standalone="no"?><svg xmlns="http://www.w3.org/2000/svg" xmlns:xlink="http://www.w3.org/1999/xlink" width="350" height="276" viewBox="4003 3183 350 276"><title>Photo View</title><style type="text/css">
path, polyline, polygon {stroke-linejoin:round;}
path, polyline, polygon, line {stroke-linecap:round;}
rect, circle, ellipse, polyline, polygon, line, path {shape-rendering:crispEdges;}
*[layerid="0"] {stroke:#FFFFFF; FILL:#FFFFFF;}*[layerid="1"] {stroke:#00BE00; fill:#00BE00;}*[layerid="2"] {stroke:#00BE00; fill:#00BE00;}*[layerid="3"] {stroke:#FFFFFF; fill:#FFFFFF;}*[layerid="4"] {stroke:#FFFFFF; fill:#FFFFFF;}*[layerid="5"] {stroke:#808080; fill:#808080;}*[layerid="6"] {stroke:#800000; fill:#800000;}*[layerid="7"] {stroke:#D2D2D2; fill:#D2D2D2;}*[layerid="8"] {stroke:#D2D2D2; fill:#D2D2D2;}*[layerid="9"] {display:none}*[layerid="10"] {stroke:#0B3B0B; fill:#0B3B0B;}*[layerid="11"] {stroke:#C0C0C0; fill:#C0C0C0;}*[layerid="12"] {stroke:#FFFFFF; fill:#FFFFFF;}*[layerid="13"] {stroke:#33CC99; fill:#33CC99;}*[layerid="14"] {stroke:#5555FF; fill:#5555FF;}*[layerid="15"] {stroke:#F022F0; fill:#F022F0;}*[layerid="16"] {stroke:#FFFFFF; FILL:#FFFFFF;}*[layerid="17"] {stroke:#FFFFFF; FILL:#FFFFFF;}*[layerid="18"] {stroke:#FFFFFF; FILL:#FFFFFF;}*[layerid="19"] {stroke:#FFFFFF; FILL:#FFFFFF;}*[layerid="20"] {stroke:#FFFFFF; FILL:#FFFFFF;}*[layerid="21"] {stroke:#800000; fill:#800000;}*[layerid="22"] {stroke:#008000; fill:#008000;}*[layerid="23"] {stroke:#00FF00; fill:#00FF00;}*[layerid="24"] {stroke:#000080; fill:#000080;}*[fill="none"] {fill: none;}
*[stroke="none"] {stroke: none;}
g[c_partid="part_pad"] > * + circle {fill: #111111;}
g[c_partid="part_via"] > * + circle {fill: #111111;}
g[c_partid="part_pad"] > polyline:nth-child(2) {stroke: #111111;}</style>
<rect x="4003" y="3183" width="350" height="276" fill="#111111" stroke="none"/><g style="pointer-events: none;"><path d="M4080,3410 4080,3250 4280,3250 4280,3410z" layerid="10"/><polyline points="4120.0004 3340.717 4106.717 3340.717 4102 3336 4102 3302 4109 3295 4141 3295 4150 3286 4150 3270" stroke-width="1" c_shapetype="line" stroke-linecap="round" fill="none" layerid="1" locked="0"/><polyline points="4183 3306 4183 3324 4172 3335 4109.0825 3335 4108.8184 3335.2639" stroke-width="1" c_shapetype="line" stroke-linecap="round" fill="none" layerid="1" locked="0"/><path d="M4090,3400 4090,3260 4271,3260 4271,3400zM4135.9,3268.45 4138.45,3268.45 4138.45,3265.9 4136.9,3265.9 4136.8587,3265.9009 4136.8174,3265.9034 4136.7763,3265.9077 4136.7354,3265.9136 4136.6948,3265.9213 4136.6545,3265.9306 4136.6147,3265.9416 4136.5753,3265.9542 4136.5365,3265.9684 4136.4983,3265.9842 4136.4608,3266.0016 4136.4241,3266.0205 4136.3881,3266.0409 4136.3531,3266.0628 4136.3189,3266.0862 4136.2858,3266.1109 4136.2537,3266.1369 4136.2227,3266.1643 4136.1929,3266.1929 4136.1643,3266.2227 4136.1369,3266.2537 4136.1109,3266.2858 4136.0862,3266.3189 4136.0628,3266.3531 4136.0409,3266.3881 4136.0205,3266.4241 4136.0016,3266.4608 4135.9842,3266.4983 4135.9684,3266.5365 4135.9542,3266.5753 4135.9416,3266.6147 4135.9306,3266.6545 4135.9213,3266.6948 4135.9136,3266.7354 4135.9077,3266.7763 4135.9034,3266.8174 4135.9009,3266.8587 4135.9,3266.9zM4114.1472,3389.5007 4115.1937,3389.4746 4116.2323,3389.3445 4117.2528,3389.1116 4118.2451,3388.7782 4119.1992,3388.3477 4120.1057,3387.8243 4120.9556,3387.2132 4121.7405,3386.5206 4122.4525,3385.7533 4123.0845,3384.9189 4123.6303,3384.0257 4124.0845,3383.0826 4124.4425,3382.0989 4124.7008,3381.0845 4124.8568,3380.0495 4124.909,3379.004 4124.8568,3377.9585 4124.7008,3376.9235 4124.4425,3375.9091 4124.0845,3374.9254 4123.6303,3373.9823 4123.0845,3373.0891 4122.4525,3372.2547 4121.7405,3371.4874 4120.9556,3370.7948 4120.1057,3370.1837 4119.1992,3369.6603 4118.2451,3369.2298 4117.2528,3368.8964 4116.2323,3368.6635 4115.1937,3368.5334 4114.1472,3368.5073 4113.1034,3368.5855 4112.0725,3368.7673 4111.0649,3369.0508 4110.0905,3369.4332 4109.159,3369.9107 4108.2797,3370.4787 4107.4613,3371.1313 4106.712,3371.8622 4106.0391,3372.6641 4105.4494,3373.5289 4104.9488,3374.4482 4104.5422,3375.4128 4104.2337,3376.413 4104.0263,3377.4391 4103.9221,3378.4806 4103.9221,3379.5274 4104.0263,3380.5689 4104.2337,3381.595 4104.5422,3382.5952 4104.9488,3383.5598 4105.4494,3384.4791 4106.0391,3385.3439 4106.712,3386.1458 4107.4613,3386.8767 4108.2797,3387.5293 4109.159,3388.0973 4110.0905,3388.5748 4111.0649,3388.9572 4112.0725,3389.2407 4113.1034,3389.4225zM4226.5003,3380.6188 4226.8989,3380.6088 4227.2946,3380.5592 4227.6834,3380.4705 4228.0614,3380.3435 4228.4248,3380.1795 4228.7702,3379.9801 4229.094,3379.7473 4229.3929,3379.4835 4229.6642,3379.1912 4229.905,3378.8733 4230.1129,3378.533 4230.2859,3378.1737 4230.4223,3377.799 4230.5207,3377.4126 4230.5801,3377.0183 4230.6,3376.62 4230.5801,3376.2217 4230.5207,3375.8274 4230.4223,3375.441 4230.2859,3375.0663 4230.1129,3374.707 4229.905,3374.3667 4229.6642,3374.0488 4229.3929,3373.7565 4229.094,3373.4927 4228.7702,3373.2599 4228.4248,3373.0605 4228.0614,3372.8965 4227.6834,3372.7695 4227.2946,3372.6808 4226.8989,3372.6312 4226.5003,3372.6212 4226.1026,3372.651 4225.7099,3372.7203 4225.3261,3372.8283 4224.9549,3372.974 4224.6,3373.1559 4224.265,3373.3722 4223.9533,3373.6209 4223.6678,3373.8993 4223.4115,3374.2048 4223.1868,3374.5343 4222.9961,3374.8845 4222.8412,3375.2519 4222.7237,3375.633 4222.6447,3376.0238 4222.605,3376.4206 4222.605,3376.8194 4222.6447,3377.2162 4222.7237,3377.607 4222.8412,3377.9881 4222.9961,3378.3555 4223.1868,3378.7057 4223.4115,3379.0352 4223.6678,3379.3407 4223.9533,3379.6191 4224.265,3379.8678 4224.6,3380.0841 4224.9549,3380.266 4225.3261,3380.4117 4225.7099,3380.5197 4226.1026,3380.589zM4182.8828,3375.6985 4183.3512,3375.6869 4183.8161,3375.6286 4184.273,3375.5243 4184.7171,3375.3751 4185.1442,3375.1824 4185.55,3374.9481 4185.9304,3374.6746 4186.2817,3374.3646 4186.6004,3374.0211 4186.8833,3373.6476 4187.1276,3373.2478 4187.3309,3372.8256 4187.4912,3372.3853 4187.6068,3371.9313 4187.6766,3371.468 4187.7,3371 4187.6766,3370.532 4187.6068,3370.0687 4187.4912,3369.6147 4187.3309,3369.1744 4187.1276,3368.7522 4186.8833,3368.3524 4186.6004,3367.9789 4186.2817,3367.6354 4185.9304,3367.3254 4185.55,3367.0519 4185.1442,3366.8176 4184.7171,3366.6249 4184.273,3366.4757 4183.8161,3366.3714 4183.3512,3366.3131 4182.8828,3366.3015 4182.4156,3366.3365 4181.9542,3366.4178 4181.5031,3366.5447 4181.067,3366.7159 4180.65,3366.9297 4180.2564,3367.1839 4179.8901,3367.476 4179.5547,3367.8032 4179.2535,3368.1621 4178.9895,3368.5493 4178.7654,3368.9607 4178.5834,3369.3925 4178.4453,3369.8402 4178.3525,3370.2995 4178.3058,3370.7657 4178.3058,3371.2343 4178.3525,3371.7005 4178.4453,3372.1598 4178.5834,3372.6075 4178.7654,3373.0393 4178.9895,3373.4507 4179.2535,3373.8379 4179.5547,3374.1968 4179.8901,3374.524 4180.2564,3374.8161 4180.65,3375.0703 4181.067,3375.2841 4181.5031,3375.4553 4181.9542,3375.5822 4182.4156,3375.6635zM4152.8828,3375.6985 4153.3512,3375.6869 4153.8161,3375.6286 4154.273,3375.5243 4154.7171,3375.3751 4155.1442,3375.1824 4155.55,3374.9481 4155.9304,3374.6746 4156.2817,3374.3646 4156.6004,3374.0211 4156.8833,3373.6476 4157.1276,3373.2478 4157.3309,3372.8256 4157.4912,3372.3853 4157.6068,3371.9313 4157.6766,3371.468 4157.7,3371 4157.6766,3370.532 4157.6068,3370.0687 4157.4912,3369.6147 4157.3309,3369.1744 4157.1276,3368.7522 4156.8833,3368.3524 4156.6004,3367.9789 4156.2817,3367.6354 4155.9304,3367.3254 4155.55,3367.0519 4155.1442,3366.8176 4154.7171,3366.6249 4154.273,3366.4757 4153.8161,3366.3714 4153.3512,3366.3131 4152.8828,3366.3015 4152.4156,3366.3365 4151.9542,3366.4178 4151.5031,3366.5447 4151.067,3366.7159 4150.65,3366.9297 4150.2564,3367.1839 4149.8901,3367.476 4149.5547,3367.8032 4149.2535,3368.1621 4148.9895,3368.5493 4148.7654,3368.9607 4148.5834,3369.3925 4148.4453,3369.8402 4148.3525,3370.2995 4148.3058,3370.7657 4148.3058,3371.2343 4148.3525,3371.7005 4148.4453,3372.1598 4148.5834,3372.6075 4148.7654,3373.0393 4148.9895,3373.4507 4149.2535,3373.8379 4149.5547,3374.1968 4149.8901,3374.524 4150.2564,3374.8161 4150.65,3375.0703 4151.067,3375.2841 4151.5031,3375.4553 4151.9542,3375.5822 4152.4156,3375.6635zM4216.3403,3375.5388 4216.7389,3375.5288 4217.1346,3375.4792 4217.5234,3375.3905 4217.9014,3375.2635 4218.2648,3375.0995 4218.6102,3374.9001 4218.934,3374.6673 4219.2329,3374.4035 4219.5042,3374.1112 4219.745,3373.7933 4219.9529,3373.453 4220.1259,3373.0937 4220.2623,3372.719 4220.3607,3372.3326 4220.4201,3371.9383 4220.44,3371.54 4220.4201,3371.1417 4220.3607,3370.7474 4220.2623,3370.361 4220.1259,3369.9863 4219.9529,3369.627 4219.745,3369.2867 4219.5042,3368.9688 4219.2329,3368.6765 4218.934,3368.4127 4218.6102,3368.1799 4218.2648,3367.9805 4217.9014,3367.8165 4217.5234,3367.6895 4217.1346,3367.6008 4216.7389,3367.5512 4216.3403,3367.5412 4215.9426,3367.571 4215.5499,3367.6403 4215.1661,3367.7483 4214.7949,3367.894 4214.44,3368.0759 4214.105,3368.2922 4213.7933,3368.5409 4213.5078,3368.8193 4213.2515,3369.1248 4213.0268,3369.4543 4212.8361,3369.8045 4212.6812,3370.1719 4212.5637,3370.553 4212.4847,3370.9438 4212.445,3371.3406 4212.445,3371.7394 4212.4847,3372.1362 4212.5637,3372.527 4212.6812,3372.9081 4212.8361,3373.2755 4213.0268,3373.6257 4213.2515,3373.9552 4213.5078,3374.2607 4213.7933,3374.5391 4214.105,3374.7878 4214.44,3375.0041 4214.7949,3375.186 4215.1661,3375.3317 4215.5499,3375.4397 4215.9426,3375.509zM4228.1,3370.1661 4228.4248,3370.0195 4228.7702,3369.8201 4229.094,3369.5873 4229.3929,3369.3235 4229.6642,3369.0312 4229.905,3368.7133 4230.1129,3368.373 4230.2859,3368.0137 4230.3054,3367.96 4228.1,3367.96zM4225.1,3370.163 4225.1,3367.96 4222.8968,3367.96 4222.9961,3368.1955 4223.1868,3368.5457 4223.4115,3368.8752 4223.6678,3369.1807 4223.9533,3369.4591 4224.265,3369.7078 4224.6,3369.9241 4224.9549,3370.106zM4216.3403,3365.3788 4216.7389,3365.3688 4217.1346,3365.3192 4217.5234,3365.2305 4217.9014,3365.1035 4218.2648,3364.9395 4218.6102,3364.7401 4218.934,3364.5073 4219.2329,3364.2435 4219.5042,3363.9512 4219.745,3363.6333 4219.9529,3363.293 4220.1259,3362.9337 4220.2623,3362.559 4220.3607,3362.1726 4220.4201,3361.7783 4220.44,3361.38 4220.4201,3360.9817 4220.3607,3360.5874 4220.2623,3360.201 4220.1259,3359.8263 4219.9529,3359.467 4219.745,3359.1267 4219.5042,3358.8088 4219.2329,3358.5165 4218.934,3358.2527 4218.6102,3358.0199 4218.2648,3357.8205 4217.9014,3357.6565 4217.5234,3357.5295 4217.1346,3357.4408 4216.7389,3357.3912 4216.3403,3357.3812 4215.9426,3357.411 4215.5499,3357.4803 4215.1661,3357.5883 4214.7949,3357.734 4214.44,3357.9159 4214.105,3358.1322 4213.7933,3358.3809 4213.5078,3358.6593 4213.2515,3358.9648 4213.0268,3359.2943 4212.8361,3359.6445 4212.6812,3360.0119 4212.5637,3360.393 4212.4847,3360.7838 4212.445,3361.1806 4212.445,3361.5794 4212.4847,3361.9762 4212.5637,3362.367 4212.6812,3362.7481 4212.8361,3363.1155 4213.0268,3363.4657 4213.2515,3363.7952 4213.5078,3364.1007 4213.7933,3364.3791 4214.105,3364.6278 4214.44,3364.8441 4214.7949,3365.026 4215.1661,3365.1717 4215.5499,3365.2797 4215.9426,3365.349zM4228.1,3364.96 4230.3054,3364.96 4230.2859,3364.9063 4230.1129,3364.547 4229.905,3364.2067 4229.6642,3363.8888 4229.3929,3363.5965 4229.094,3363.3327 4228.7702,3363.0999 4228.4248,3362.9005 4228.1,3362.7539zM4222.8968,3364.96 4225.1,3364.96 4225.1,3362.757 4224.9549,3362.814 4224.6,3362.9959 4224.265,3363.2122 4223.9533,3363.4609 4223.6678,3363.7393 4223.4115,3364.0448 4223.1868,3364.3743 4222.9961,3364.7245zM4182.8828,3357.6985 4183.3512,3357.6869 4183.8161,3357.6286 4184.273,3357.5243 4184.7171,3357.3751 4185.1442,3357.1824 4185.55,3356.9481 4185.9304,3356.6746 4186.2817,3356.3646 4186.6004,3356.0211 4186.8833,3355.6476 4187.1276,3355.2478 4187.3309,3354.8256 4187.4912,3354.3853 4187.6068,3353.9313 4187.6766,3353.468 4187.7,3353 4187.6766,3352.532 4187.6068,3352.0687 4187.4912,3351.6147 4187.3309,3351.1744 4187.1276,3350.7522 4186.8833,3350.3524 4186.6004,3349.9789 4186.2817,3349.6354 4185.9304,3349.3254 4185.55,3349.0519 4185.1442,3348.8176 4184.7171,3348.6249 4184.273,3348.4757 4183.8161,3348.3714 4183.3512,3348.3131 4182.8828,3348.3015 4182.4156,3348.3365 4181.9542,3348.4178 4181.5031,3348.5447 4181.067,3348.7159 4180.65,3348.9297 4180.2564,3349.1839 4179.8901,3349.476 4179.5547,3349.8032 4179.2535,3350.1621 4178.9895,3350.5493 4178.7654,3350.9607 4178.5834,3351.3925 4178.4453,3351.8402 4178.3525,3352.2995 4178.3058,3352.7657 4178.3058,3353.2343 4178.3525,3353.7005 4178.4453,3354.1598 4178.5834,3354.6075 4178.7654,3355.0393 4178.9895,3355.4507 4179.2535,3355.8379 4179.5547,3356.1968 4179.8901,3356.524 4180.2564,3356.8161 4180.65,3357.0703 4181.067,3357.2841 4181.5031,3357.4553 4181.9542,3357.5822 4182.4156,3357.6635zM4151.15,3357.3167 4151.15,3354.85 4148.6856,3354.85 4148.7654,3355.0393 4148.9895,3355.4507 4149.2535,3355.8379 4149.5547,3356.1968 4149.8901,3356.524 4150.2564,3356.8161 4150.65,3357.0703 4151.067,3357.2841zM4154.85,3357.3151 4155.1442,3357.1824 4155.55,3356.9481 4155.9304,3356.6746 4156.2817,3356.3646 4156.6004,3356.0211 4156.8833,3355.6476 4157.1276,3355.2478 4157.3192,3354.85 4154.85,3354.85zM4251.8155,3356.0777 4252.553,3356.0593 4253.285,3355.9676 4254.0042,3355.8034 4254.7035,3355.5685 4255.376,3355.2651 4256.0148,3354.8962 4256.6138,3354.4656 4257.167,3353.9774 4257.6687,3353.4366 4258.1142,3352.8486 4258.4988,3352.2191 4258.8189,3351.5544 4259.0712,3350.8612 4259.2533,3350.1463 4259.3632,3349.4168 4259.4,3348.68 4259.3632,3347.9432 4259.2533,3347.2137 4259.0712,3346.4988 4258.8189,3345.8056 4258.4988,3345.1409 4258.1142,3344.5114 4257.6687,3343.9234 4257.167,3343.3826 4256.6138,3342.8944 4256.0148,3342.4638 4255.376,3342.0949 4254.7035,3341.7915 4254.0042,3341.5566 4253.285,3341.3924 4252.553,3341.3007 4251.8155,3341.2823 4251.0799,3341.3374 4250.3533,3341.4655 4249.6432,3341.6653 4248.9565,3341.9349 4248.3,3342.2714 4247.6803,3342.6717 4247.1035,3343.1316 4246.5754,3343.6467 4246.1012,3344.2118 4245.6856,3344.8214 4245.3328,3345.4693 4245.0463,3346.1491 4244.8288,3346.854 4244.6827,3347.5771 4244.6092,3348.3111 4244.6092,3349.0489 4244.6827,3349.7829 4244.8288,3350.506 4245.0463,3351.2109 4245.3328,3351.8907 4245.6856,3352.5386 4246.1012,3353.1482 4246.5754,3353.7133 4247.1035,3354.2284 4247.6803,3354.6883 4248.3,3355.0886 4248.9565,3355.4251 4249.6432,3355.6947 4250.3533,3355.8945 4251.0799,3356.0226zM4121.6634,3355.6124 4121.9739,3355.4723 4122.3475,3355.2566 4122.6977,3355.0048 4123.0211,3354.7194 4123.3145,3354.4032 4123.575,3354.0594 4123.7999,3353.6913 4123.987,3353.3027 4123.9933,3353.2854 4121.6634,3353.2854zM4118.3366,3355.6115 4118.3366,3353.2854 4116.0115,3353.2854 4116.1017,3353.4993 4116.308,3353.8781 4116.551,3354.2345 4116.8282,3354.565 4117.137,3354.8662 4117.4743,3355.1351 4117.8366,3355.3691 4118.2204,3355.5659zM4154.85,3351.15 4157.3192,3351.15 4157.1276,3350.7522 4156.8833,3350.3524 4156.6004,3349.9789 4156.2817,3349.6354 4155.9304,3349.3254 4155.55,3349.0519 4155.1442,3348.8176 4154.85,3348.6849zM4148.6856,3351.15 4151.15,3351.15 4151.15,3348.6833 4151.067,3348.7159 4150.65,3348.9297 4150.2564,3349.1839 4149.8901,3349.476 4149.5547,3349.8032 4149.2535,3350.1621 4148.9895,3350.5493 4148.7654,3350.9607zM4108.7101,3350.4945 4109.1413,3350.4837 4109.5693,3350.4301 4109.9899,3350.3341 4110.3988,3350.1967 4110.7919,3350.0193 4111.1655,3349.8036 4111.5157,3349.5518 4111.8391,3349.2664 4112.1325,3348.9502 4112.393,3348.6064 4112.6179,3348.2383 4112.805,3347.8497 4112.9526,3347.4443 4113.059,3347.0263 4113.1233,3346.5998 4113.1448,3346.169 4113.1233,3345.7382 4113.059,3345.3117 4112.9526,3344.8937 4112.805,3344.4883 4112.6179,3344.0997 4112.393,3343.7316 4112.1325,3343.3878 4111.8391,3343.0716 4111.5157,3342.7862 4111.1655,3342.5344 4110.7919,3342.3187 4110.5665,3342.217 4115.9426,3342.217 4116.1017,3342.5943 4116.308,3342.9731 4116.551,3343.3295 4116.8282,3343.66 4117.137,3343.9612 4117.4743,3344.2301 4117.8366,3344.4641 4118.2204,3344.6609 4118.622,3344.8185 4119.0372,3344.9353 4119.462,3345.0102 4119.8921,3345.0425 4120.3233,3345.0317 4120.7513,3344.9781 4121.1719,3344.8821 4121.5808,3344.7447 4121.9739,3344.5673 4122.3475,3344.3516 4122.6977,3344.0998 4123.0211,3343.8144 4123.3145,3343.4982 4123.575,3343.1544 4123.7999,3342.7863 4123.987,3342.3977 4124.1346,3341.9923 4124.241,3341.5743 4124.3053,3341.1478 4124.3268,3340.717 4124.3053,3340.2862 4124.241,3339.8597 4124.1346,3339.4417 4123.987,3339.0363 4123.7999,3338.6477 4123.575,3338.2796 4123.3145,3337.9358 4123.0211,3337.6196 4122.6977,3337.3342 4122.3475,3337.0824 4121.9739,3336.8667 4121.5808,3336.6893 4121.1719,3336.5519 4120.9445,3336.5 4172,3336.5 4172.0512,3336.4991 4172.1024,3336.4965 4172.1534,3336.4921 4172.2042,3336.486 4172.2549,3336.4782 4172.3052,3336.4686 4172.3551,3336.4574 4172.4047,3336.4444 4172.4538,3336.4297 4172.5023,3336.4134 4172.5503,3336.3954 4172.5976,3336.3758 4172.6442,3336.3546 4172.6901,3336.3318 4172.7352,3336.3075 4172.7794,3336.2816 4172.8227,3336.2543 4172.865,3336.2255 4172.9064,3336.1952 4172.9466,3336.1636 4172.9858,3336.1306 4173.0238,3336.0963 4173.0607,3336.0607 4184.0607,3325.0607 4184.0963,3325.0238 4184.1306,3324.9858 4184.1636,3324.9466 4184.1952,3324.9064 4184.2255,3324.865 4184.2543,3324.8227 4184.2816,3324.7794 4184.3075,3324.7352 4184.3318,3324.6901 4184.3546,3324.6442 4184.3758,3324.5976 4184.3954,3324.5503 4184.4134,3324.5023 4184.4297,3324.4538 4184.4444,3324.4047 4184.4574,3324.3551 4184.4686,3324.3052 4184.4782,3324.2549 4184.486,3324.2042 4184.4921,3324.1534 4184.4965,3324.1024 4184.4991,3324.0512 4184.5,3324 4184.5,3310.448 4184.7171,3310.3751 4185.1442,3310.1824 4185.55,3309.9481 4185.9304,3309.6746 4186.2817,3309.3646 4186.6004,3309.0211 4186.8833,3308.6476 4187.1276,3308.2478 4187.3309,3307.8256 4187.4912,3307.3853 4187.6068,3306.9313 4187.6766,3306.468 4187.7,3306 4187.6766,3305.532 4187.6068,3305.0687 4187.4912,3304.6147 4187.3309,3304.1744 4187.1276,3303.7522 4186.8833,3303.3524 4186.6004,3302.9789 4186.2817,3302.6354 4185.9304,3302.3254 4185.55,3302.0519 4185.1442,3301.8176 4184.7171,3301.6249 4184.273,3301.4757 4183.8161,3301.3714 4183.3512,3301.3131 4182.8828,3301.3015 4182.4156,3301.3365 4181.9542,3301.4178 4181.5031,3301.5447 4181.067,3301.7159 4180.65,3301.9297 4180.2564,3302.1839 4179.8901,3302.476 4179.5547,3302.8032 4179.2535,3303.1621 4178.9895,3303.5493 4178.7654,3303.9607 4178.5834,3304.3925 4178.4453,3304.8402 4178.3525,3305.2995 4178.3058,3305.7657 4178.3058,3306.2343 4178.3525,3306.7005 4178.4453,3307.1598 4178.5834,3307.6075 4178.7654,3308.0393 4178.9895,3308.4507 4179.2535,3308.8379 4179.5547,3309.1968 4179.8901,3309.524 4180.2564,3309.8161 4180.65,3310.0703 4181.067,3310.2841 4181.5,3310.4541 4181.5,3323.3786 4171.3786,3333.5 4122.2533,3333.5 4122.3475,3333.4456 4122.6977,3333.1938 4123.0211,3332.9084 4123.3145,3332.5922 4123.575,3332.2484 4123.7999,3331.8803 4123.987,3331.4917 4124.1346,3331.0863 4124.241,3330.6683 4124.3053,3330.2418 4124.3268,3329.811 4124.3053,3329.3802 4124.241,3328.9537 4124.1346,3328.5357 4123.987,3328.1303 4123.7999,3327.7417 4123.575,3327.3736 4123.3145,3327.0298 4123.0211,3326.7136 4122.6977,3326.4282 4122.3475,3326.1764 4121.9739,3325.9607 4121.5808,3325.7833 4121.1719,3325.6459 4120.7513,3325.5499 4120.3233,3325.4963 4119.8921,3325.4855 4119.462,3325.5178 4119.0372,3325.5927 4118.622,3325.7095 4118.2204,3325.8671 4117.8366,3326.0639 4117.4743,3326.2979 4117.137,3326.5668 4116.8282,3326.868 4116.551,3327.1985 4116.308,3327.5549 4116.1017,3327.9337 4115.9341,3328.3311 4115.807,3328.7433 4115.7215,3329.1661 4115.6786,3329.5953 4115.6786,3330.0267 4115.7215,3330.4559 4115.807,3330.8787 4115.9341,3331.2909 4116.1017,3331.6883 4116.308,3332.0671 4116.551,3332.4235 4116.8282,3332.754 4117.137,3333.0552 4117.4743,3333.3241 4117.7466,3333.5 4112.7649,3333.5 4112.6179,3333.1947 4112.393,3332.8266 4112.1325,3332.4828 4111.8391,3332.1666 4111.5157,3331.8812 4111.1655,3331.6294 4110.7919,3331.4137 4110.3988,3331.2363 4109.9899,3331.0989 4109.5693,3331.0029 4109.1413,3330.9493 4108.7101,3330.9385 4108.28,3330.9708 4107.8552,3331.0457 4107.44,3331.1625 4107.0384,3331.3201 4106.6546,3331.5169 4106.2923,3331.7509 4105.955,3332.0198 4105.6462,3332.321 4105.369,3332.6515 4105.126,3333.0079 4104.9197,3333.3867 4104.7521,3333.7841 4104.625,3334.1963 4104.5395,3334.6191 4104.4966,3335.0483 4104.4966,3335.4797 4104.5395,3335.9089 4104.625,3336.3317 4104.7016,3336.5802 4103.5,3335.3786 4103.5,3302.6214 4109.6214,3296.5 4141,3296.5 4141.0512,3296.4991 4141.1024,3296.4965 4141.1534,3296.4921 4141.2042,3296.486 4141.2549,3296.4782 4141.3052,3296.4686 4141.3551,3296.4574 4141.4047,3296.4444 4141.4538,3296.4297 4141.5023,3296.4134 4141.5503,3296.3954 4141.5976,3296.3758 4141.6442,3296.3546 4141.6901,3296.3318 4141.7352,3296.3075 4141.7794,3296.2816 4141.8227,3296.2543 4141.865,3296.2255 4141.9064,3296.1952 4141.9466,3296.1636 4141.9858,3296.1306 4142.0238,3296.0963 4142.0607,3296.0607 4151.0607,3287.0607 4151.0963,3287.0238 4151.1306,3286.9858 4151.1636,3286.9466 4151.1952,3286.9064 4151.2255,3286.865 4151.2543,3286.8227 4151.2816,3286.7794 4151.3075,3286.7352 4151.3318,3286.6901 4151.3546,3286.6442 4151.3758,3286.5976 4151.3954,3286.5503 4151.4134,3286.5023 4151.4297,3286.4538 4151.4444,3286.4047 4151.4574,3286.3551 4151.4686,3286.3052 4151.4782,3286.2549 4151.486,3286.2042 4151.4921,3286.1534 4151.4965,3286.1024 4151.4991,3286.0512 4151.5,3286 4151.5,3273.8157 4151.8705,3273.6485 4152.2244,3273.4441 4152.5563,3273.2055 4152.8628,3272.9351 4153.1408,3272.6354 4153.3876,3272.3096 4153.6007,3271.9608 4153.7781,3271.5926 4153.9178,3271.2085 4154.0187,3270.8124 4154.0796,3270.4082 4154.1,3270 4154.0796,3269.5918 4154.0187,3269.1876 4153.9178,3268.7915 4153.7781,3268.4074 4153.6007,3268.0392 4153.3876,3267.6904 4153.1408,3267.3646 4152.8628,3267.0649 4152.5563,3266.7945 4152.2244,3266.5559 4151.8705,3266.3515 4151.4979,3266.1834 4151.1104,3266.0532 4150.712,3265.9623 4150.3064,3265.9115 4149.8978,3265.9013 4149.4902,3265.9318 4149.0877,3266.0028 4148.6942,3266.1135 4148.3137,3266.2628 4147.95,3266.4493 4147.6067,3266.6711 4147.2871,3266.9259 4146.9945,3267.2113 4146.7318,3267.5244 4146.5015,3267.8621 4146.306,3268.2211 4146.1473,3268.5977 4146.0268,3268.9883 4145.9458,3269.3889 4145.9051,3269.7956 4145.9051,3270.2044 4145.9458,3270.6111 4146.0268,3271.0117 4146.1473,3271.4023 4146.306,3271.7789 4146.5015,3272.1379 4146.7318,3272.4756 4146.9945,3272.7887 4147.2871,3273.0741 4147.6067,3273.3289 4147.95,3273.5507 4148.3137,3273.7372 4148.5,3273.8103 4148.5,3285.3786 4140.3786,3293.5 4109,3293.5 4108.9488,3293.5009 4108.8976,3293.5035 4108.8466,3293.5079 4108.7958,3293.514 4108.7451,3293.5218 4108.6948,3293.5314 4108.6449,3293.5426 4108.5953,3293.5556 4108.5462,3293.5703 4108.4977,3293.5866 4108.4497,3293.6046 4108.4024,3293.6242 4108.3558,3293.6454 4108.3099,3293.6682 4108.2648,3293.6925 4108.2206,3293.7184 4108.1773,3293.7457 4108.135,3293.7745 4108.0936,3293.8048 4108.0534,3293.8364 4108.0142,3293.8694 4107.9762,3293.9037 4107.9393,3293.9393 4100.9393,3300.9393 4100.9037,3300.9762 4100.8694,3301.0142 4100.8364,3301.0534 4100.8048,3301.0936 4100.7745,3301.135 4100.7457,3301.1773 4100.7184,3301.2206 4100.6925,3301.2648 4100.6682,3301.3099 4100.6454,3301.3558 4100.6242,3301.4024 4100.6046,3301.4497 4100.5866,3301.4977 4100.5703,3301.5462 4100.5556,3301.5953 4100.5426,3301.6449 4100.5314,3301.6948 4100.5218,3301.7451 4100.514,3301.7958 4100.5079,3301.8466 4100.5035,3301.8976 4100.5009,3301.9488 4100.5,3302 4100.5,3336 4100.5009,3336.0512 4100.5035,3336.1024 4100.5079,3336.1534 4100.514,3336.2042 4100.5218,3336.2549 4100.5314,3336.3052 4100.5426,3336.3551 4100.5556,3336.4047 4100.5703,3336.4538 4100.5866,3336.5023 4100.6046,3336.5503 4100.6242,3336.5976 4100.6454,3336.6442 4100.6682,3336.6901 4100.6925,3336.7352 4100.7184,3336.7794 4100.7457,3336.8227 4100.7745,3336.865 4100.8048,3336.9064 4100.8364,3336.9466 4100.8694,3336.9858 4100.9037,3337.0238 4100.9393,3337.0607 4105.6563,3341.7777 4105.6932,3341.8133 4105.7312,3341.8476 4105.7704,3341.8806 4105.8106,3341.9122 4105.852,3341.9425 4105.8943,3341.9713 4105.9376,3341.9986 4105.9818,3342.0245 4106.0269,3342.0488 4106.0728,3342.0716 4106.1194,3342.0928 4106.1667,3342.1124 4106.2147,3342.1304 4106.2632,3342.1467 4106.3123,3342.1614 4106.3619,3342.1744 4106.4118,3342.1856 4106.4621,3342.1952 4106.5128,3342.203 4106.5636,3342.2091 4106.6146,3342.2135 4106.6658,3342.2161 4106.717,3342.217 4107.059,3342.217 4107.0384,3342.2251 4106.6546,3342.4219 4106.2923,3342.6559 4105.955,3342.9248 4105.6462,3343.226 4105.369,3343.5565 4105.126,3343.9129 4104.9197,3344.2917 4104.7521,3344.6891 4104.625,3345.1013 4104.5395,3345.5241 4104.4966,3345.9533 4104.4966,3346.3847 4104.5395,3346.8139 4104.625,3347.2367 4104.7521,3347.6489 4104.9197,3348.0463 4105.126,3348.4251 4105.369,3348.7815 4105.6462,3349.112 4105.955,3349.4132 4106.2923,3349.6821 4106.6546,3349.9161 4107.0384,3350.1129 4107.44,3350.2705 4107.8552,3350.3873 4108.28,3350.4622zM4121.6634,3349.9586 4123.9933,3349.9586 4123.987,3349.9413 4123.7999,3349.5527 4123.575,3349.1846 4123.3145,3348.8408 4123.0211,3348.5246 4122.6977,3348.2392 4122.3475,3347.9874 4121.9739,3347.7717 4121.6634,3347.6316zM4116.0115,3349.9586 4118.3366,3349.9586 4118.3366,3347.6325 4118.2204,3347.6781 4117.8366,3347.8749 4117.4743,3348.1089 4117.137,3348.3778 4116.8282,3348.679 4116.551,3349.0095 4116.308,3349.3659 4116.1017,3349.7447zM4141.55,3268.45 4144.1,3268.45 4144.1,3266.9 4144.0991,3266.8587 4144.0966,3266.8174 4144.0923,3266.7763 4144.0864,3266.7354 4144.0787,3266.6948 4144.0694,3266.6545 4144.0584,3266.6147 4144.0458,3266.5753 4144.0316,3266.5365 4144.0158,3266.4983 4143.9984,3266.4608 4143.9795,3266.4241 4143.9591,3266.3881 4143.9372,3266.3531 4143.9138,3266.3189 4143.8891,3266.2858 4143.8631,3266.2537 4143.8357,3266.2227 4143.8071,3266.1929 4143.7773,3266.1643 4143.7463,3266.1369 4143.7142,3266.1109 4143.6811,3266.0862 4143.6469,3266.0628 4143.6119,3266.0409 4143.5759,3266.0205 4143.5392,3266.0016 4143.5017,3265.9842 4143.4635,3265.9684 4143.4247,3265.9542 4143.3853,3265.9416 4143.3455,3265.9306 4143.3052,3265.9213 4143.2646,3265.9136 4143.2237,3265.9077 4143.1826,3265.9034 4143.1413,3265.9009 4143.1,3265.9 4141.55,3265.9zM4251.8155,3396.7177 4252.553,3396.6993 4253.285,3396.6076 4254.0042,3396.4434 4254.7035,3396.2085 4255.376,3395.9051 4256.0148,3395.5362 4256.6138,3395.1056 4257.167,3394.6174 4257.6687,3394.0766 4258.1142,3393.4886 4258.4988,3392.8591 4258.8189,3392.1944 4259.0712,3391.5012 4259.2533,3390.7863 4259.3632,3390.0568 4259.4,3389.32 4259.3632,3388.5832 4259.2533,3387.8537 4259.0712,3387.1388 4258.8189,3386.4456 4258.4988,3385.7809 4258.1142,3385.1514 4257.6687,3384.5634 4257.167,3384.0226 4256.6138,3383.5344 4256.0148,3383.1038 4255.376,3382.7349 4254.7035,3382.4315 4254.0042,3382.1966 4253.285,3382.0324 4252.553,3381.9407 4251.8155,3381.9223 4251.0799,3381.9774 4250.3533,3382.1055 4249.6432,3382.3053 4248.9565,3382.5749 4248.3,3382.9114 4247.6803,3383.3117 4247.1035,3383.7716 4246.5754,3384.2867 4246.1012,3384.8518 4245.6856,3385.4614 4245.3328,3386.1093 4245.0463,3386.7891 4244.8288,3387.494 4244.6827,3388.2171 4244.6092,3388.9511 4244.6092,3389.6889 4244.6827,3390.4229 4244.8288,3391.146 4245.0463,3391.8509 4245.3328,3392.5307 4245.6856,3393.1786 4246.1012,3393.7882 4246.5754,3394.3533 4247.1035,3394.8684 4247.6803,3395.3283 4248.3,3395.7286 4248.9565,3396.0651 4249.6432,3396.3347 4250.3533,3396.5345 4251.0799,3396.6626zM4159.8978,3274.0987 4160.3064,3274.0885 4160.712,3274.0377 4161.1104,3273.9468 4161.4979,3273.8166 4161.8705,3273.6485 4162.2244,3273.4441 4162.5563,3273.2055 4162.8628,3272.9351 4163.1408,3272.6354 4163.3876,3272.3096 4163.6007,3271.9608 4163.7781,3271.5926 4163.9178,3271.2085 4164.0187,3270.8124 4164.0796,3270.4082 4164.1,3270 4164.0796,3269.5918 4164.0187,3269.1876 4163.9178,3268.7915 4163.7781,3268.4074 4163.6007,3268.0392 4163.3876,3267.6904 4163.1408,3267.3646 4162.8628,3267.0649 4162.5563,3266.7945 4162.2244,3266.5559 4161.8705,3266.3515 4161.4979,3266.1834 4161.1104,3266.0532 4160.712,3265.9623 4160.3064,3265.9115 4159.8978,3265.9013 4159.4902,3265.9318 4159.0877,3266.0028 4158.6942,3266.1135 4158.3137,3266.2628 4157.95,3266.4493 4157.6067,3266.6711 4157.2871,3266.9259 4156.9945,3267.2113 4156.7318,3267.5244 4156.5015,3267.8621 4156.306,3268.2211 4156.1473,3268.5977 4156.0268,3268.9883 4155.9458,3269.3889 4155.9051,3269.7956 4155.9051,3270.2044 4155.9458,3270.6111 4156.0268,3271.0117 4156.1473,3271.4023 4156.306,3271.7789 4156.5015,3272.1379 4156.7318,3272.4756 4156.9945,3272.7887 4157.2871,3273.0741 4157.6067,3273.3289 4157.95,3273.5507 4158.3137,3273.7372 4158.6942,3273.8865 4159.0877,3273.9972 4159.4902,3274.0682zM4136.9,3274.1 4138.45,3274.1 4138.45,3271.55 4135.9,3271.55 4135.9,3273.1 4135.9009,3273.1413 4135.9034,3273.1826 4135.9077,3273.2237 4135.9136,3273.2646 4135.9213,3273.3052 4135.9306,3273.3455 4135.9416,3273.3853 4135.9542,3273.4247 4135.9684,3273.4635 4135.9842,3273.5017 4136.0016,3273.5392 4136.0205,3273.5759 4136.0409,3273.6119 4136.0628,3273.6469 4136.0862,3273.6811 4136.1109,3273.7142 4136.1369,3273.7463 4136.1643,3273.7773 4136.1929,3273.8071 4136.2227,3273.8357 4136.2537,3273.8631 4136.2858,3273.8891 4136.3189,3273.9138 4136.3531,3273.9372 4136.3881,3273.9591 4136.4241,3273.9795 4136.4608,3273.9984 4136.4983,3274.0158 4136.5365,3274.0316 4136.5753,3274.0458 4136.6147,3274.0584 4136.6545,3274.0694 4136.6948,3274.0787 4136.7354,3274.0864 4136.7763,3274.0923 4136.8174,3274.0966 4136.8587,3274.0991zM4141.55,3274.1 4143.1,3274.1 4143.1413,3274.0991 4143.1826,3274.0966 4143.2237,3274.0923 4143.2646,3274.0864 4143.3052,3274.0787 4143.3455,3274.0694 4143.3853,3274.0584 4143.4247,3274.0458 4143.4635,3274.0316 4143.5017,3274.0158 4143.5392,3273.9984 4143.5759,3273.9795 4143.6119,3273.9591 4143.6469,3273.9372 4143.6811,3273.9138 4143.7142,3273.8891 4143.7463,3273.8631 4143.7773,3273.8357 4143.8071,3273.8071 4143.8357,3273.7773 4143.8631,3273.7463 4143.8891,3273.7142 4143.9138,3273.6811 4143.9372,3273.6469 4143.9591,3273.6119 4143.9795,3273.5759 4143.9984,3273.5392 4144.0158,3273.5017 4144.0316,3273.4635 4144.0458,3273.4247 4144.0584,3273.3853 4144.0694,3273.3455 4144.0787,3273.3052 4144.0864,3273.2646 4144.0923,3273.2237 4144.0966,3273.1826 4144.0991,3273.1413 4144.1,3273.1 4144.1,3271.55 4141.55,3271.55zM4251.8155,3279.0777 4252.553,3279.0593 4253.285,3278.9676 4254.0042,3278.8034 4254.7035,3278.5685 4255.376,3278.2651 4256.0148,3277.8962 4256.6138,3277.4656 4257.167,3276.9774 4257.6687,3276.4366 4258.1142,3275.8486 4258.4988,3275.2191 4258.8189,3274.5544 4259.0712,3273.8612 4259.2533,3273.1463 4259.3632,3272.4168 4259.4,3271.68 4259.3632,3270.9432 4259.2533,3270.2137 4259.0712,3269.4988 4258.8189,3268.8056 4258.4988,3268.1409 4258.1142,3267.5114 4257.6687,3266.9234 4257.167,3266.3826 4256.6138,3265.8944 4256.0148,3265.4638 4255.376,3265.0949 4254.7035,3264.7915 4254.0042,3264.5566 4253.285,3264.3924 4252.553,3264.3007 4251.8155,3264.2823 4251.0799,3264.3374 4250.3533,3264.4655 4249.6432,3264.6653 4248.9565,3264.9349 4248.3,3265.2714 4247.6803,3265.6717 4247.1035,3266.1316 4246.5754,3266.6467 4246.1012,3267.2118 4245.6856,3267.8214 4245.3328,3268.4693 4245.0463,3269.1491 4244.8288,3269.854 4244.6827,3270.5771 4244.6092,3271.3111 4244.6092,3272.0489 4244.6827,3272.7829 4244.8288,3273.506 4245.0463,3274.2109 4245.3328,3274.8907 4245.6856,3275.5386 4246.1012,3276.1482 4246.5754,3276.7133 4247.1035,3277.2284 4247.6803,3277.6883 4248.3,3278.0886 4248.9565,3278.4251 4249.6432,3278.6947 4250.3533,3278.8945 4251.0799,3279.0226zM4108.7101,3328.6835 4109.1413,3328.6727 4109.5693,3328.6191 4109.9899,3328.5231 4110.3988,3328.3857 4110.7919,3328.2083 4111.1655,3327.9926 4111.5157,3327.7408 4111.8391,3327.4554 4112.1325,3327.1392 4112.393,3326.7954 4112.6179,3326.4273 4112.805,3326.0387 4112.9526,3325.6333 4113.059,3325.2153 4113.1233,3324.7888 4113.1448,3324.358 4113.1233,3323.9272 4113.059,3323.5007 4112.9526,3323.0827 4112.805,3322.6773 4112.6179,3322.2887 4112.393,3321.9206 4112.1325,3321.5768 4111.8391,3321.2606 4111.5157,3320.9752 4111.1655,3320.7234 4110.7919,3320.5077 4110.3988,3320.3303 4109.9899,3320.1929 4109.5693,3320.0969 4109.1413,3320.0433 4108.7101,3320.0325 4108.28,3320.0648 4107.8552,3320.1397 4107.44,3320.2565 4107.0384,3320.4141 4106.6546,3320.6109 4106.2923,3320.8449 4105.955,3321.1138 4105.6462,3321.415 4105.369,3321.7455 4105.126,3322.1019 4104.9197,3322.4807 4104.7521,3322.8781 4104.625,3323.2903 4104.5395,3323.7131 4104.4966,3324.1423 4104.4966,3324.5737 4104.5395,3325.0029 4104.625,3325.4257 4104.7521,3325.8379 4104.9197,3326.2353 4105.126,3326.6141 4105.369,3326.9705 4105.6462,3327.301 4105.955,3327.6022 4106.2923,3327.8711 4106.6546,3328.1051 4107.0384,3328.3019 4107.44,3328.4595 4107.8552,3328.5763 4108.28,3328.6512zM4119.8921,3323.2305 4120.3233,3323.2197 4120.7513,3323.1661 4121.1719,3323.0701 4121.5808,3322.9327 4121.9739,3322.7553 4122.3475,3322.5396 4122.6977,3322.2878 4123.0211,3322.0024 4123.3145,3321.6862 4123.575,3321.3424 4123.7999,3320.9743 4123.987,3320.5857 4124.1346,3320.1803 4124.241,3319.7623 4124.3053,3319.3358 4124.3268,3318.905 4124.3053,3318.4742 4124.241,3318.0477 4124.1346,3317.6297 4123.987,3317.2243 4123.7999,3316.8357 4123.575,3316.4676 4123.3145,3316.1238 4123.0211,3315.8076 4122.6977,3315.5222 4122.3475,3315.2704 4121.9739,3315.0547 4121.5808,3314.8773 4121.1719,3314.7399 4120.7513,3314.6439 4120.3233,3314.5903 4119.8921,3314.5795 4119.462,3314.6118 4119.0372,3314.6867 4118.622,3314.8035 4118.2204,3314.9611 4117.8366,3315.1579 4117.4743,3315.3919 4117.137,3315.6608 4116.8282,3315.962 4116.551,3316.2925 4116.308,3316.6489 4116.1017,3317.0277 4115.9341,3317.4251 4115.807,3317.8373 4115.7215,3318.2601 4115.6786,3318.6893 4115.6786,3319.1207 4115.7215,3319.5499 4115.807,3319.9727 4115.9341,3320.3849 4116.1017,3320.7823 4116.308,3321.1611 4116.551,3321.5175 4116.8282,3321.848 4117.137,3322.1492 4117.4743,3322.4181 4117.8366,3322.6521 4118.2204,3322.8489 4118.622,3323.0065 4119.0372,3323.1233 4119.462,3323.1982zM4251.8155,3319.7177 4252.553,3319.6993 4253.285,3319.6076 4254.0042,3319.4434 4254.7035,3319.2085 4255.376,3318.9051 4256.0148,3318.5362 4256.6138,3318.1056 4257.167,3317.6174 4257.6687,3317.0766 4258.1142,3316.4886 4258.4988,3315.8591 4258.8189,3315.1944 4259.0712,3314.5012 4259.2533,3313.7863 4259.3632,3313.0568 4259.4,3312.32 4259.3632,3311.5832 4259.2533,3310.8537 4259.0712,3310.1388 4258.8189,3309.4456 4258.4988,3308.7809 4258.1142,3308.1514 4257.6687,3307.5634 4257.167,3307.0226 4256.6138,3306.5344 4256.0148,3306.1038 4255.376,3305.7349 4254.7035,3305.4315 4254.0042,3305.1966 4253.285,3305.0324 4252.553,3304.9407 4251.8155,3304.9223 4251.0799,3304.9774 4250.3533,3305.1055 4249.6432,3305.3053 4248.9565,3305.5749 4248.3,3305.9114 4247.6803,3306.3117 4247.1035,3306.7716 4246.5754,3307.2867 4246.1012,3307.8518 4245.6856,3308.4614 4245.3328,3309.1093 4245.0463,3309.7891 4244.8288,3310.494 4244.6827,3311.2171 4244.6092,3311.9511 4244.6092,3312.6889 4244.6827,3313.4229 4244.8288,3314.146 4245.0463,3314.8509 4245.3328,3315.5307 4245.6856,3316.1786 4246.1012,3316.7882 4246.5754,3317.3533 4247.1035,3317.8684 4247.6803,3318.3283 4248.3,3318.7286 4248.9565,3319.0651 4249.6432,3319.3347 4250.3533,3319.5345 4251.0799,3319.6626zM4108.7101,3317.7785 4109.1413,3317.7677 4109.5693,3317.7141 4109.9899,3317.6181 4110.3988,3317.4807 4110.7919,3317.3033 4111.1655,3317.0876 4111.5157,3316.8358 4111.8391,3316.5504 4112.1325,3316.2342 4112.393,3315.8904 4112.6179,3315.5223 4112.805,3315.1337 4112.9526,3314.7283 4113.059,3314.3103 4113.1233,3313.8838 4113.1448,3313.453 4113.1233,3313.0222 4113.059,3312.5957 4112.9526,3312.1777 4112.805,3311.7723 4112.6179,3311.3837 4112.393,3311.0156 4112.1325,3310.6718 4111.8391,3310.3556 4111.5157,3310.0702 4111.1655,3309.8184 4110.7919,3309.6027 4110.3988,3309.4253 4109.9899,3309.2879 4109.5693,3309.1919 4109.1413,3309.1383 4108.7101,3309.1275 4108.28,3309.1598 4107.8552,3309.2347 4107.44,3309.3515 4107.0384,3309.5091 4106.6546,3309.7059 4106.2923,3309.9399 4105.955,3310.2088 4105.6462,3310.51 4105.369,3310.8405 4105.126,3311.1969 4104.9197,3311.5757 4104.7521,3311.9731 4104.625,3312.3853 4104.5395,3312.8081 4104.4966,3313.2373 4104.4966,3313.6687 4104.5395,3314.0979 4104.625,3314.5207 4104.7521,3314.9329 4104.9197,3315.3303 4105.126,3315.7091 4105.369,3316.0655 4105.6462,3316.396 4105.955,3316.6972 4106.2923,3316.9661 4106.6546,3317.2001 4107.0384,3317.3969 4107.44,3317.5545 4107.8552,3317.6713 4108.28,3317.7462zM4116.6736,3312.3268 4123.3272,3312.3268 4123.3685,3312.3259 4123.4098,3312.3234 4123.4509,3312.3191 4123.4918,3312.3132 4123.5324,3312.3055 4123.5727,3312.2962 4123.6125,3312.2852 4123.6519,3312.2726 4123.6907,3312.2584 4123.7289,3312.2426 4123.7664,3312.2252 4123.8031,3312.2063 4123.8391,3312.1859 4123.8741,3312.164 4123.9083,3312.1406 4123.9414,3312.1159 4123.9735,3312.0899 4124.0045,3312.0625 4124.0343,3312.0339 4124.0629,3312.0041 4124.0903,3311.9731 4124.1163,3311.941 4124.141,3311.9079 4124.1644,3311.8737 4124.1863,3311.8387 4124.2067,3311.8027 4124.2256,3311.766 4124.243,3311.7285 4124.2588,3311.6903 4124.273,3311.6515 4124.2856,3311.6121 4124.2966,3311.5723 4124.3059,3311.532 4124.3136,3311.4914 4124.3195,3311.4505 4124.3238,3311.4094 4124.3263,3311.3681 4124.3272,3311.3268 4124.3272,3304.6732 4124.3263,3304.6319 4124.3238,3304.5906 4124.3195,3304.5495 4124.3136,3304.5086 4124.3059,3304.468 4124.2966,3304.4277 4124.2856,3304.3879 4124.273,3304.3485 4124.2588,3304.3097 4124.243,3304.2715 4124.2256,3304.234 4124.2067,3304.1973 4124.1863,3304.1613 4124.1644,3304.1263 4124.141,3304.0921 4124.1163,3304.059 4124.0903,3304.0269 4124.0629,3303.9959 4124.0343,3303.9661 4124.0045,3303.9375 4123.9735,3303.9101 4123.9414,3303.8841 4123.9083,3303.8594 4123.8741,3303.836 4123.8391,3303.8141 4123.8031,3303.7937 4123.7664,3303.7748 4123.7289,3303.7574 4123.6907,3303.7416 4123.6519,3303.7274 4123.6125,3303.7148 4123.5727,3303.7038 4123.5324,3303.6945 4123.4918,3303.6868 4123.4509,3303.6809 4123.4098,3303.6766 4123.3685,3303.6741 4123.3272,3303.6732 4116.6736,3303.6732 4116.6323,3303.6741 4116.591,3303.6766 4116.5499,3303.6809 4116.509,3303.6868 4116.4684,3303.6945 4116.4281,3303.7038 4116.3883,3303.7148 4116.3489,3303.7274 4116.3101,3303.7416 4116.2719,3303.7574 4116.2344,3303.7748 4116.1977,3303.7937 4116.1617,3303.8141 4116.1267,3303.836 4116.0925,3303.8594 4116.0594,3303.8841 4116.0273,3303.9101 4115.9963,3303.9375 4115.9665,3303.9661 4115.9379,3303.9959 4115.9105,3304.0269 4115.8845,3304.059 4115.8598,3304.0921 4115.8364,3304.1263 4115.8145,3304.1613 4115.7941,3304.1973 4115.7752,3304.234 4115.7578,3304.2715 4115.742,3304.3097 4115.7278,3304.3485 4115.7152,3304.3879 4115.7042,3304.4277 4115.6949,3304.468 4115.6872,3304.5086 4115.6813,3304.5495 4115.677,3304.5906 4115.6745,3304.6319 4115.6736,3304.6732 4115.6736,3311.3268 4115.6745,3311.3681 4115.677,3311.4094 4115.6813,3311.4505 4115.6872,3311.4914 4115.6949,3311.532 4115.7042,3311.5723 4115.7152,3311.6121 4115.7278,3311.6515 4115.742,3311.6903 4115.7578,3311.7285 4115.7752,3311.766 4115.7941,3311.8027 4115.8145,3311.8387 4115.8364,3311.8737 4115.8598,3311.9079 4115.8845,3311.941 4115.9105,3311.9731 4115.9379,3312.0041 4115.9665,3312.0339 4115.9963,3312.0625 4116.0273,3312.0899 4116.0594,3312.1159 4116.0925,3312.1406 4116.1267,3312.164 4116.1617,3312.1859 4116.1977,3312.2063 4116.2344,3312.2252 4116.2719,3312.2426 4116.3101,3312.2584 4116.3489,3312.2726 4116.3883,3312.2852 4116.4281,3312.2962 4116.4684,3312.3055 4116.509,3312.3132 4116.5499,3312.3191 4116.591,3312.3234 4116.6323,3312.3259zM4152.8828,3310.6985 4153.3512,3310.6869 4153.8161,3310.6286 4154.273,3310.5243 4154.7171,3310.3751 4155.1442,3310.1824 4155.55,3309.9481 4155.9304,3309.6746 4156.2817,3309.3646 4156.6004,3309.0211 4156.8833,3308.6476 4157.1276,3308.2478 4157.3309,3307.8256 4157.4912,3307.3853 4157.6068,3306.9313 4157.6766,3306.468 4157.7,3306 4157.6766,3305.532 4157.6068,3305.0687 4157.4912,3304.6147 4157.3309,3304.1744 4157.1276,3303.7522 4156.8833,3303.3524 4156.6004,3302.9789 4156.2817,3302.6354 4155.9304,3302.3254 4155.55,3302.0519 4155.1442,3301.8176 4154.7171,3301.6249 4154.273,3301.4757 4153.8161,3301.3714 4153.3512,3301.3131 4152.8828,3301.3015 4152.4156,3301.3365 4151.9542,3301.4178 4151.5031,3301.5447 4151.067,3301.7159 4150.65,3301.9297 4150.2564,3302.1839 4149.8901,3302.476 4149.5547,3302.8032 4149.2535,3303.1621 4148.9895,3303.5493 4148.7654,3303.9607 4148.5834,3304.3925 4148.4453,3304.8402 4148.3525,3305.2995 4148.3058,3305.7657 4148.3058,3306.2343 4148.3525,3306.7005 4148.4453,3307.1598 4148.5834,3307.6075 4148.7654,3308.0393 4148.9895,3308.4507 4149.2535,3308.8379 4149.5547,3309.1968 4149.8901,3309.524 4150.2564,3309.8161 4150.65,3310.0703 4151.067,3310.2841 4151.5031,3310.4553 4151.9542,3310.5822 4152.4156,3310.6635zM4226.5003,3303.6188 4226.8989,3303.6088 4227.2946,3303.5592 4227.6834,3303.4705 4228.0614,3303.3435 4228.4248,3303.1795 4228.7702,3302.9801 4229.094,3302.7473 4229.3929,3302.4835 4229.6642,3302.1912 4229.905,3301.8733 4230.1129,3301.533 4230.2859,3301.1737 4230.4223,3300.799 4230.5207,3300.4126 4230.5801,3300.0183 4230.6,3299.62 4230.5801,3299.2217 4230.5207,3298.8274 4230.4223,3298.441 4230.2859,3298.0663 4230.1129,3297.707 4229.905,3297.3667 4229.6642,3297.0488 4229.3929,3296.7565 4229.094,3296.4927 4228.7702,3296.2599 4228.4248,3296.0605 4228.0614,3295.8965 4227.6834,3295.7695 4227.2946,3295.6808 4226.8989,3295.6312 4226.5003,3295.6212 4226.1026,3295.651 4225.7099,3295.7203 4225.3261,3295.8283 4224.9549,3295.974 4224.6,3296.1559 4224.265,3296.3722 4223.9533,3296.6209 4223.6678,3296.8993 4223.4115,3297.2048 4223.1868,3297.5343 4222.9961,3297.8845 4222.8412,3298.2519 4222.7237,3298.633 4222.6447,3299.0238 4222.605,3299.4206 4222.605,3299.8194 4222.6447,3300.2162 4222.7237,3300.607 4222.8412,3300.9881 4222.9961,3301.3555 4223.1868,3301.7057 4223.4115,3302.0352 4223.6678,3302.3407 4223.9533,3302.6191 4224.265,3302.8678 4224.6,3303.0841 4224.9549,3303.266 4225.3261,3303.4117 4225.7099,3303.5197 4226.1026,3303.589zM4216.3403,3298.5388 4216.7389,3298.5288 4217.1346,3298.4792 4217.5234,3298.3905 4217.9014,3298.2635 4218.2648,3298.0995 4218.6102,3297.9001 4218.934,3297.6673 4219.2329,3297.4035 4219.5042,3297.1112 4219.745,3296.7933 4219.9529,3296.453 4220.1259,3296.0937 4220.2623,3295.719 4220.3607,3295.3326 4220.4201,3294.9383 4220.44,3294.54 4220.4201,3294.1417 4220.3607,3293.7474 4220.2623,3293.361 4220.1259,3292.9863 4219.9529,3292.627 4219.745,3292.2867 4219.5042,3291.9688 4219.2329,3291.6765 4218.934,3291.4127 4218.6102,3291.1799 4218.2648,3290.9805 4217.9014,3290.8165 4217.5234,3290.6895 4217.1346,3290.6008 4216.7389,3290.5512 4216.3403,3290.5412 4215.9426,3290.571 4215.5499,3290.6403 4215.1661,3290.7483 4214.7949,3290.894 4214.44,3291.0759 4214.105,3291.2922 4213.7933,3291.5409 4213.5078,3291.8193 4213.2515,3292.1248 4213.0268,3292.4543 4212.8361,3292.8045 4212.6812,3293.1719 4212.5637,3293.553 4212.4847,3293.9438 4212.445,3294.3406 4212.445,3294.7394 4212.4847,3295.1362 4212.5637,3295.527 4212.6812,3295.9081 4212.8361,3296.2755 4213.0268,3296.6257 4213.2515,3296.9552 4213.5078,3297.2607 4213.7933,3297.5391 4214.105,3297.7878 4214.44,3298.0041 4214.7949,3298.186 4215.1661,3298.3317 4215.5499,3298.4397 4215.9426,3298.509zM4228.1,3293.1661 4228.4248,3293.0195 4228.7702,3292.8201 4229.094,3292.5873 4229.3929,3292.3235 4229.6642,3292.0312 4229.905,3291.7133 4230.1129,3291.373 4230.2859,3291.0137 4230.3054,3290.96 4228.1,3290.96zM4225.1,3293.163 4225.1,3290.96 4222.8968,3290.96 4222.9961,3291.1955 4223.1868,3291.5457 4223.4115,3291.8752 4223.6678,3292.1807 4223.9533,3292.4591 4224.265,3292.7078 4224.6,3292.9241 4224.9549,3293.106zM4114.1472,3291.1147 4115.1937,3291.0886 4116.2323,3290.9585 4117.2528,3290.7256 4118.2451,3290.3922 4119.1992,3289.9617 4120.1057,3289.4383 4120.9556,3288.8272 4121.7405,3288.1346 4122.4525,3287.3673 4123.0845,3286.5329 4123.6303,3285.6397 4124.0845,3284.6966 4124.4425,3283.7129 4124.7008,3282.6985 4124.8568,3281.6635 4124.909,3280.618 4124.8568,3279.5725 4124.7008,3278.5375 4124.4425,3277.5231 4124.0845,3276.5394 4123.6303,3275.5963 4123.0845,3274.7031 4122.4525,3273.8687 4121.7405,3273.1014 4120.9556,3272.4088 4120.1057,3271.7977 4119.1992,3271.2743 4118.2451,3270.8438 4117.2528,3270.5104 4116.2323,3270.2775 4115.1937,3270.1474 4114.1472,3270.1213 4113.1034,3270.1995 4112.0725,3270.3813 4111.0649,3270.6648 4110.0905,3271.0472 4109.159,3271.5247 4108.2797,3272.0927 4107.4613,3272.7453 4106.712,3273.4762 4106.0391,3274.2781 4105.4494,3275.1429 4104.9488,3276.0622 4104.5422,3277.0268 4104.2337,3278.027 4104.0263,3279.0531 4103.9221,3280.0946 4103.9221,3281.1414 4104.0263,3282.1829 4104.2337,3283.209 4104.5422,3284.2092 4104.9488,3285.1738 4105.4494,3286.0931 4106.0391,3286.9579 4106.712,3287.7598 4107.4613,3288.4907 4108.2797,3289.1433 4109.159,3289.7113 4110.0905,3290.1888 4111.0649,3290.5712 4112.0725,3290.8547 4113.1034,3291.0365zM4216.3403,3288.3788 4216.7389,3288.3688 4217.1346,3288.3192 4217.5234,3288.2305 4217.9014,3288.1035 4218.2648,3287.9395 4218.6102,3287.7401 4218.934,3287.5073 4219.2329,3287.2435 4219.5042,3286.9512 4219.745,3286.6333 4219.9529,3286.293 4220.1259,3285.9337 4220.2623,3285.559 4220.3607,3285.1726 4220.4201,3284.7783 4220.44,3284.38 4220.4201,3283.9817 4220.3607,3283.5874 4220.2623,3283.201 4220.1259,3282.8263 4219.9529,3282.467 4219.745,3282.1267 4219.5042,3281.8088 4219.2329,3281.5165 4218.934,3281.2527 4218.6102,3281.0199 4218.2648,3280.8205 4217.9014,3280.6565 4217.5234,3280.5295 4217.1346,3280.4408 4216.7389,3280.3912 4216.3403,3280.3812 4215.9426,3280.411 4215.5499,3280.4803 4215.1661,3280.5883 4214.7949,3280.734 4214.44,3280.9159 4214.105,3281.1322 4213.7933,3281.3809 4213.5078,3281.6593 4213.2515,3281.9648 4213.0268,3282.2943 4212.8361,3282.6445 4212.6812,3283.0119 4212.5637,3283.393 4212.4847,3283.7838 4212.445,3284.1806 4212.445,3284.5794 4212.4847,3284.9762 4212.5637,3285.367 4212.6812,3285.7481 4212.8361,3286.1155 4213.0268,3286.4657 4213.2515,3286.7952 4213.5078,3287.1007 4213.7933,3287.3791 4214.105,3287.6278 4214.44,3287.8441 4214.7949,3288.026 4215.1661,3288.1717 4215.5499,3288.2797 4215.9426,3288.349zM4228.1,3287.96 4230.3054,3287.96 4230.2859,3287.9063 4230.1129,3287.547 4229.905,3287.2067 4229.6642,3286.8888 4229.3929,3286.5965 4229.094,3286.3327 4228.7702,3286.0999 4228.4248,3285.9005 4228.1,3285.7539zM4222.8968,3287.96 4225.1,3287.96 4225.1,3285.757 4224.9549,3285.814 4224.6,3285.9959 4224.265,3286.2122 4223.9533,3286.4609 4223.6678,3286.7393 4223.4115,3287.0448 4223.1868,3287.3743 4222.9961,3287.7245z" stroke-width="0" layerid="1"/><g c_partid="part_pad" c_etype="pinpart" c_origin="4120,3308" layerid="7" plated="Y" locked="0" c_rotation="180" c_width="6.6535" c_height="6.6535" c_shape="RECT"><polygon points="4123.3272 3311.3268 4116.6736 3311.3268 4116.6736 3304.6732 4123.3272 3304.6732" stroke-width="0"/><circle cx="4120" cy="3308" r="2.1457" stroke-width="0"/></g><g c_partid="part_pad" c_etype="pinpart" c_origin="4108.818,3313.453" layerid="7" plated="Y" locked="0" c_rotation="180" c_width="6.6535" c_height="6.6535" c_shape="ELLIPSE"><ellipse cx="4108.818" cy="3313.453" rx="3.32675" ry="3.32675" stroke-width="0"/><circle cx="4108.818" cy="3313.453" r="2.1457" stroke-width="0"/></g><g c_partid="part_pad" c_etype="pinpart" c_origin="4120,3318.905" layerid="7" plated="Y" locked="0" c_rotation="180" c_width="6.6535" c_height="6.6535" c_shape="ELLIPSE"><ellipse cx="4120" cy="3318.905" rx="3.32675" ry="3.32675" stroke-width="0"/><circle cx="4120" cy="3318.905" r="2.1457" stroke-width="0"/></g><g c_partid="part_pad" c_etype="pinpart" c_origin="4108.818,3324.358" layerid="7" plated="Y" locked="0" c_rotation="180" c_width="6.6535" c_height="6.6535" c_shape="ELLIPSE"><ellipse cx="4108.818" cy="3324.358" rx="3.32675" ry="3.32675" stroke-width="0"/><circle cx="4108.818" cy="3324.358" r="2.1457" stroke-width="0"/></g><g c_partid="part_pad" c_etype="pinpart" c_origin="4120,3329.811" layerid="7" plated="Y" locked="0" c_rotation="180" c_width="6.6535" c_height="6.6535" c_shape="ELLIPSE"><ellipse cx="4120" cy="3329.811" rx="3.32675" ry="3.32675" stroke-width="0"/><circle cx="4120" cy="3329.811" r="2.1457" stroke-width="0"/></g><g c_partid="part_pad" c_etype="pinpart" c_origin="4108.818,3335.264" layerid="7" plated="Y" locked="0" c_rotation="180" c_width="6.6535" c_height="6.6535" c_shape="ELLIPSE"><ellipse cx="4108.818" cy="3335.264" rx="3.32675" ry="3.32675" stroke-width="0"/><circle cx="4108.818" cy="3335.264" r="2.1457" stroke-width="0"/></g><g c_partid="part_pad" c_etype="pinpart" c_origin="4120,3340.717" layerid="7" plated="Y" locked="0" c_rotation="180" c_width="6.6535" c_height="6.6535" c_shape="ELLIPSE"><ellipse cx="4120" cy="3340.717" rx="3.32675" ry="3.32675" stroke-width="0"/><circle cx="4120" cy="3340.717" r="2.1457" stroke-width="0"/></g><g c_partid="part_pad" c_etype="pinpart" c_origin="4108.818,3346.169" layerid="7" plated="Y" locked="0" c_rotation="180" c_width="6.6535" c_height="6.6535" c_shape="ELLIPSE"><ellipse cx="4108.818" cy="3346.169" rx="3.32675" ry="3.32675" stroke-width="0"/><circle cx="4108.818" cy="3346.169" r="2.1457" stroke-width="0"/></g><g c_partid="part_pad" c_etype="pinpart" c_origin="4120,3351.622" layerid="7" plated="Y" locked="0" c_rotation="180" c_width="6.6535" c_height="6.6535" c_shape="ELLIPSE"><ellipse cx="4120" cy="3351.622" rx="3.32675" ry="3.32675" stroke-width="0"/><circle cx="4120" cy="3351.622" r="2.1457" stroke-width="0"/></g><g c_partid="part_pad" c_etype="pinpart" c_origin="4114.409,3379.004" layerid="7" plated="Y" locked="0" c_rotation="90" c_width="19" c_height="19" c_shape="ELLIPSE"><ellipse cx="4114.409" cy="3379.004" rx="9.5" ry="9.5" stroke-width="0"/><circle cx="4114.409" cy="3379.004" r="6.5" stroke-width="0"/></g><g c_partid="part_pad" c_etype="pinpart" c_origin="4114.409,3280.618" layerid="7" plated="Y" locked="0" c_rotation="90" c_width="19" c_height="19" c_shape="ELLIPSE"><ellipse cx="4114.409" cy="3280.618" rx="9.5" ry="9.5" stroke-width="0"/><circle cx="4114.409" cy="3280.618" r="6.5" stroke-width="0"/></g><g c_partid="part_pad" c_etype="pinpart" c_origin="4160,3270" layerid="7" plated="Y" locked="0" c_rotation="0" c_width="6.2" c_height="6.2" c_shape="ELLIPSE"><ellipse cx="4160" cy="3270" rx="3.1" ry="3.1" stroke-width="0"/><circle cx="4160" cy="3270" r="1.75" stroke-width="0"/></g><g c_partid="part_pad" c_etype="pinpart" c_origin="4150,3270" layerid="7" plated="Y" locked="0" c_rotation="0" c_width="6.2" c_height="6.2" c_shape="ELLIPSE"><ellipse cx="4150" cy="3270" rx="3.1" ry="3.1" stroke-width="0"/><circle cx="4150" cy="3270" r="1.75" stroke-width="0"/></g><g c_partid="part_pad" c_etype="pinpart" c_origin="4140,3270" layerid="7" plated="Y" locked="0" c_rotation="0" c_width="6.2" c_height="6.2" c_shape="RECT"><polygon points="4136.9 3266.9 4143.1 3266.9 4143.1 3273.1 4136.9 3273.1" stroke-width="0"/><circle cx="4140" cy="3270" r="1.75" stroke-width="0"/></g><g c_partid="part_pad" c_etype="pinpart" c_origin="4252,3312.32" layerid="7" plated="Y" locked="0" c_rotation="90" c_width="12.8" c_height="12.8" c_shape="ELLIPSE"><ellipse cx="4252" cy="3312.32" rx="6.4" ry="6.4" stroke-width="0"/><circle cx="4252" cy="3312.32" r="6.4" stroke-width="0"/></g><g c_partid="part_pad" c_etype="pinpart" c_origin="4252,3271.68" layerid="7" plated="Y" locked="0" c_rotation="90" c_width="12.8" c_height="12.8" c_shape="ELLIPSE"><ellipse cx="4252" cy="3271.68" rx="6.4" ry="6.4" stroke-width="0"/><circle cx="4252" cy="3271.68" r="6.4" stroke-width="0"/></g><g c_partid="part_pad" c_etype="pinpart" c_origin="4216.44,3284.38" layerid="7" plated="Y" locked="0" c_rotation="90" c_width="6" c_height="6" c_shape="ELLIPSE"><ellipse cx="4216.44" cy="3284.38" rx="3" ry="3" stroke-width="0"/><circle cx="4216.44" cy="3284.38" r="1.8" stroke-width="0"/></g><g c_partid="part_pad" c_etype="pinpart" c_origin="4226.6,3289.46" layerid="7" plated="Y" locked="0" c_rotation="90" c_width="6" c_height="6" c_shape="ELLIPSE"><ellipse cx="4226.6" cy="3289.46" rx="3" ry="3" stroke-width="0"/><circle cx="4226.6" cy="3289.46" r="1.8" stroke-width="0"/></g><g c_partid="part_pad" c_etype="pinpart" c_origin="4216.44,3294.54" layerid="7" plated="Y" locked="0" c_rotation="90" c_width="6" c_height="6" c_shape="ELLIPSE"><ellipse cx="4216.44" cy="3294.54" rx="3" ry="3" stroke-width="0"/><circle cx="4216.44" cy="3294.54" r="1.8" stroke-width="0"/></g><g c_partid="part_pad" c_etype="pinpart" c_origin="4226.6,3299.62" layerid="7" plated="Y" locked="0" c_rotation="90" c_width="6" c_height="6" c_shape="ELLIPSE"><ellipse cx="4226.6" cy="3299.62" rx="3" ry="3" stroke-width="0"/><circle cx="4226.6" cy="3299.62" r="1.8" stroke-width="0"/></g><g c_partid="part_pad" c_etype="pinpart" c_origin="4252,3389.32" layerid="7" plated="Y" locked="0" c_rotation="90" c_width="12.8" c_height="12.8" c_shape="ELLIPSE"><ellipse cx="4252" cy="3389.32" rx="6.4" ry="6.4" stroke-width="0"/><circle cx="4252" cy="3389.32" r="6.4" stroke-width="0"/></g><g c_partid="part_pad" c_etype="pinpart" c_origin="4252,3348.68" layerid="7" plated="Y" locked="0" c_rotation="90" c_width="12.8" c_height="12.8" c_shape="ELLIPSE"><ellipse cx="4252" cy="3348.68" rx="6.4" ry="6.4" stroke-width="0"/><circle cx="4252" cy="3348.68" r="6.4" stroke-width="0"/></g><g c_partid="part_pad" c_etype="pinpart" c_origin="4216.44,3361.38" layerid="7" plated="Y" locked="0" c_rotation="90" c_width="6" c_height="6" c_shape="ELLIPSE"><ellipse cx="4216.44" cy="3361.38" rx="3" ry="3" stroke-width="0"/><circle cx="4216.44" cy="3361.38" r="1.8" stroke-width="0"/></g><g c_partid="part_pad" c_etype="pinpart" c_origin="4226.6,3366.46" layerid="7" plated="Y" locked="0" c_rotation="90" c_width="6" c_height="6" c_shape="ELLIPSE"><ellipse cx="4226.6" cy="3366.46" rx="3" ry="3" stroke-width="0"/><circle cx="4226.6" cy="3366.46" r="1.8" stroke-width="0"/></g><g c_partid="part_pad" c_etype="pinpart" c_origin="4216.44,3371.54" layerid="7" plated="Y" locked="0" c_rotation="90" c_width="6" c_height="6" c_shape="ELLIPSE"><ellipse cx="4216.44" cy="3371.54" rx="3" ry="3" stroke-width="0"/><circle cx="4216.44" cy="3371.54" r="1.8" stroke-width="0"/></g><g c_partid="part_pad" c_etype="pinpart" c_origin="4226.6,3376.62" layerid="7" plated="Y" locked="0" c_rotation="90" c_width="6" c_height="6" c_shape="ELLIPSE"><ellipse cx="4226.6" cy="3376.62" rx="3" ry="3" stroke-width="0"/><circle cx="4226.6" cy="3376.62" r="1.8" stroke-width="0"/></g><g c_partid="part_pad" c_etype="pinpart" c_origin="4153,3353" layerid="7" plated="Y" locked="0" c_rotation="0" c_width="7.4" c_height="7.4" c_shape="ELLIPSE"><ellipse cx="4153" cy="3353" rx="3.7" ry="3.7" stroke-width="0"/><circle cx="4153" cy="3353" r="1.77" stroke-width="0"/></g><g c_partid="part_pad" c_etype="pinpart" c_origin="4183,3353" layerid="7" plated="Y" locked="0" c_rotation="0" c_width="7.4" c_height="7.4" c_shape="ELLIPSE"><ellipse cx="4183" cy="3353" rx="3.7" ry="3.7" stroke-width="0"/><circle cx="4183" cy="3353" r="1.77" stroke-width="0"/></g><g c_partid="part_pad" c_etype="pinpart" c_origin="4153,3371" layerid="7" plated="Y" locked="0" c_rotation="0" c_width="7.4" c_height="7.4" c_shape="ELLIPSE"><ellipse cx="4153" cy="3371" rx="3.7" ry="3.7" stroke-width="0"/><circle cx="4153" cy="3371" r="1.77" stroke-width="0"/></g><g c_partid="part_pad" c_etype="pinpart" c_origin="4183,3371" layerid="7" plated="Y" locked="0" c_rotation="0" c_width="7.4" c_height="7.4" c_shape="ELLIPSE"><ellipse cx="4183" cy="3371" rx="3.7" ry="3.7" stroke-width="0"/><circle cx="4183" cy="3371" r="1.77" stroke-width="0"/></g><g c_partid="part_pad" c_etype="pinpart" c_origin="4153,3306" layerid="7" plated="Y" locked="0" c_rotation="0" c_width="7.4" c_height="7.4" c_shape="ELLIPSE"><ellipse cx="4153" cy="3306" rx="3.7" ry="3.7" stroke-width="0"/><circle cx="4153" cy="3306" r="1.77" stroke-width="0"/></g><g c_partid="part_pad" c_etype="pinpart" c_origin="4183,3306" layerid="7" plated="Y" locked="0" c_rotation="0" c_width="7.4" c_height="7.4" c_shape="ELLIPSE"><ellipse cx="4183" cy="3306" rx="3.7" ry="3.7" stroke-width="0"/><circle cx="4183" cy="3306" r="1.77" stroke-width="0"/></g><g c_partid="part_pcbtext" c_origin="4100.9991,3264.4509" c_rotation="0" c_mirror="" locked="0" layerid="3" c_shapetype="group"><path c_fontSize="4.5" c_fontFamily="" c_text="EXT" d="M 4101.0001 3261.9999 L 4101.0001 3266.2899 M 4101.0001 3261.9999 L 4103.6601 3261.9999 M 4101.0001 3264.0399 L 4102.6401 3264.0399 M 4101.0001 3266.2899 L 4103.6601 3266.2899 M 4105.0101 3261.9999 L 4107.8701 3266.2899 M 4107.8701 3261.9999 L 4105.0101 3266.2899 M 4110.6501 3261.9999 L 4110.6501 3266.2899 M 4109.2201 3261.9999 L 4112.0901 3261.9999" fill="none" stroke-width="0.7" c_note="note_pre"/></g><g c_partid="part_pcbtext" c_origin="4088.909,3256.311" c_rotation="0" c_mirror="" locked="0" layerid="3" c_shapetype="group" display="none"><path c_fontSize="4.5" c_fontFamily="" c_text="DS1034-09MUNSi44" d="M 4088.9094 3253.861 L 4088.9094 3258.151 M 4088.9094 3253.861 L 4090.3394 3253.861 L 4090.9594 3254.061 L 4091.3594 3254.471 L 4091.5694 3254.881 L 4091.7694 3255.491 L 4091.7694 3256.511 L 4091.5694 3257.131 L 4091.3594 3257.541 L 4090.9594 3257.951 L 4090.3394 3258.151 L 4088.9094 3258.151 M 4095.9894 3254.471 L 4095.5794 3254.061 L 4094.9594 3253.861 L 4094.1494 3253.861 L 4093.5294 3254.061 L 4093.1194 3254.471 L 4093.1194 3254.881 L 4093.3294 3255.291 L 4093.5294 3255.491 L 4093.9394 3255.701 L 4095.1694 3256.111 L 4095.5794 3256.311 L 4095.7794 3256.511 L 4095.9894 3256.921 L 4095.9894 3257.541 L 4095.5794 3257.951 L 4094.9594 3258.151 L 4094.1494 3258.151 L 4093.5294 3257.951 L 4093.1194 3257.541 M 4097.3394 3254.671 L 4097.7494 3254.471 L 4098.3594 3253.861 L 4098.3594 3258.151 M 4100.9394 3253.861 L 4100.3194 3254.061 L 4099.9094 3254.671 L 4099.7094 3255.701 L 4099.7094 3256.311 L 4099.9094 3257.331 L 4100.3194 3257.951 L 4100.9394 3258.151 L 4101.3494 3258.151 L 4101.9594 3257.951 L 4102.3694 3257.331 L 4102.5694 3256.311 L 4102.5694 3255.701 L 4102.3694 3254.671 L 4101.9594 3254.061 L 4101.3494 3253.861 L 4100.9394 3253.861 M 4104.3294 3253.861 L 4106.5794 3253.861 L 4105.3594 3255.491 L 4105.9694 3255.491 L 4106.3794 3255.701 L 4106.5794 3255.901 L 4106.7894 3256.511 L 4106.7894 3256.921 L 4106.5794 3257.541 L 4106.1694 3257.951 L 4105.5594 3258.151 L 4104.9494 3258.151 L 4104.3294 3257.951 L 4104.1294 3257.741 L 4103.9194 3257.331 M 4110.1794 3253.861 L 4108.1394 3256.721 L 4111.2094 3256.721 M 4110.1794 3253.861 L 4110.1794 3258.151 M 4112.5594 3256.311 L 4116.2394 3256.311 M 4118.8094 3253.861 L 4118.1994 3254.061 L 4117.7894 3254.671 L 4117.5894 3255.701 L 4117.5894 3256.311 L 4117.7894 3257.331 L 4118.1994 3257.951 L 4118.8094 3258.151 L 4119.2194 3258.151 L 4119.8394 3257.951 L 4120.2494 3257.331 L 4120.4494 3256.311 L 4120.4494 3255.701 L 4120.2494 3254.671 L 4119.8394 3254.061 L 4119.2194 3253.861 L 4118.8094 3253.861 M 4124.4594 3255.291 L 4124.2594 3255.901 L 4123.8494 3256.311 L 4123.2294 3256.511 L 4123.0294 3256.511 L 4122.4094 3256.311 L 4122.0094 3255.901 L 4121.7994 3255.291 L 4121.7994 3255.081 L 4122.0094 3254.471 L 4122.4094 3254.061 L 4123.0294 3253.861 L 4123.2294 3253.861 L 4123.8494 3254.061 L 4124.2594 3254.471 L 4124.4594 3255.291 L 4124.4594 3256.311 L 4124.2594 3257.331 L 4123.8494 3257.951 L 4123.2294 3258.151 L 4122.8194 3258.151 L 4122.2094 3257.951 L 4122.0094 3257.541 M 4125.8094 3253.861 L 4125.8094 3258.151 M 4125.8094 3253.861 L 4127.4494 3258.151 M 4129.0794 3253.861 L 4127.4494 3258.151 M 4129.0794 3253.861 L 4129.0794 3258.151 M 4130.4294 3253.861 L 4130.4294 3256.921 L 4130.6394 3257.541 L 4131.0494 3257.951 L 4131.6594 3258.151 L 4132.0694 3258.151 L 4132.6794 3257.951 L 4133.0894 3257.541 L 4133.2994 3256.921 L 4133.2994 3253.861 M 4134.6494 3253.861 L 4134.6494 3258.151 M 4134.6494 3253.861 L 4137.5094 3258.151 M 4137.5094 3253.861 L 4137.5094 3258.151 M 4141.7194 3254.471 L 4141.3094 3254.061 L 4140.6994 3253.861 L 4139.8794 3253.861 L 4139.2694 3254.061 L 4138.8594 3254.471 L 4138.8594 3254.881 L 4139.0594 3255.291 L 4139.2694 3255.491 L 4139.6794 3255.701 L 4140.9094 3256.111 L 4141.3094 3256.311 L 4141.5194 3256.511 L 4141.7194 3256.921 L 4141.7194 3257.541 L 4141.3094 3257.951 L 4140.6994 3258.151 L 4139.8794 3258.151 L 4139.2694 3257.951 L 4138.8594 3257.541 M 4143.0694 3253.861 L 4143.2794 3254.061 L 4143.4794 3253.861 L 4143.2794 3253.651 L 4143.0694 3253.861 M 4143.2794 3255.291 L 4143.2794 3258.151 M 4146.8794 3253.861 L 4144.8294 3256.721 L 4147.8994 3256.721 M 4146.8794 3253.861 L 4146.8794 3258.151 M 4151.2994 3253.861 L 4149.2494 3256.721 L 4152.3194 3256.721 M 4151.2994 3253.861 L 4151.2994 3258.151" fill="none" stroke-width="0.5" c_note="note_name"/></g><g c_partid="part_pcbtext" c_origin="4122.209,3300.611" c_rotation="90" c_mirror="" locked="0" layerid="3" c_shapetype="group"><path c_fontSize="4.72441" c_fontFamily="" c_text="1" d="M 4120.4894 3300.611 L 4120.2794 3300.181 L 4119.6294 3299.541 L 4124.1394 3299.541" fill="none" stroke-width="0.47244"/></g><g c_partid="part_pcbtext" c_origin="4123.809,3362.311" c_rotation="90" c_mirror="" locked="0" layerid="3" c_shapetype="group"><path c_fontSize="4.72441" c_fontFamily="" c_text="5" d="M 4121.2294 3359.731 L 4121.2294 3361.881 L 4123.1694 3362.101 L 4122.9494 3361.881 L 4122.7394 3361.241 L 4122.7394 3360.591 L 4122.9494 3359.951 L 4123.3794 3359.521 L 4124.0194 3359.301 L 4124.4494 3359.301 L 4125.0994 3359.521 L 4125.5294 3359.951 L 4125.7394 3360.591 L 4125.7394 3361.241 L 4125.5294 3361.881 L 4125.3094 3362.101 L 4124.8794 3362.311" fill="none" stroke-width="0.47244"/></g><g c_partid="part_pcbtext" c_origin="4111.209,3362.611" c_rotation="90" c_mirror="" locked="0" layerid="3" c_shapetype="group"><path c_fontSize="4.72441" c_fontFamily="" c_text="9" d="M 4110.1394 3359.821 L 4110.7794 3360.031 L 4111.2094 3360.461 L 4111.4194 3361.111 L 4111.4194 3361.321 L 4111.2094 3361.971 L 4110.7794 3362.401 L 4110.1394 3362.611 L 4109.9194 3362.611 L 4109.2794 3362.401 L 4108.8494 3361.971 L 4108.6294 3361.321 L 4108.6294 3361.111 L 4108.8494 3360.461 L 4109.2794 3360.031 L 4110.1394 3359.821 L 4111.2094 3359.821 L 4112.2794 3360.031 L 4112.9294 3360.461 L 4113.1394 3361.111 L 4113.1394 3361.541 L 4112.9294 3362.181 L 4112.4994 3362.401" fill="none" stroke-width="0.47244"/></g><g c_partid="part_pcbtext" c_origin="4111.209,3301.111" c_rotation="90" c_mirror="" locked="0" layerid="3" c_shapetype="group"><path c_fontSize="4.72441" c_fontFamily="" c_text="6" d="M 4109.2794 3298.531 L 4108.8494 3298.751 L 4108.6294 3299.391 L 4108.6294 3299.821 L 4108.8494 3300.471 L 4109.4894 3300.901 L 4110.5694 3301.111 L 4111.6394 3301.111 L 4112.4994 3300.901 L 4112.9294 3300.471 L 4113.1394 3299.821 L 4113.1394 3299.611 L 4112.9294 3298.961 L 4112.4994 3298.531 L 4111.8494 3298.321 L 4111.6394 3298.321 L 4110.9994 3298.531 L 4110.5694 3298.961 L 4110.3494 3299.611 L 4110.3494 3299.821 L 4110.5694 3300.471 L 4110.9994 3300.901 L 4111.6394 3301.111" fill="none" stroke-width="0.47244"/></g><g c_partid="part_pcbtext" c_origin="4146,3281.45" c_rotation="0" c_mirror="" locked="0" layerid="3" c_shapetype="group"><path c_fontSize="4.5" c_fontFamily="" c_text="UV" d="M 4146 3279 L 4146 3282.06 L 4146.2 3282.68 L 4146.61 3283.09 L 4147.23 3283.29 L 4147.64 3283.29 L 4148.25 3283.09 L 4148.66 3282.68 L 4148.86 3282.06 L 4148.86 3279 M 4150.21 3279 L 4151.85 3283.29 M 4153.49 3279 L 4151.85 3283.29" fill="none" stroke-width="0.7" c_note="note_pre"/></g><g c_partid="part_pcbtext" c_origin="4150,3252" c_rotation="0" c_mirror="" locked="0" layerid="3" c_shapetype="group" display="none"><path c_fontSize="4.5" c_fontFamily="" c_text="UV" d="M 4150 3249.55 L 4150 3252.61 L 4150.2 3253.23 L 4150.61 3253.64 L 4151.23 3253.84 L 4151.64 3253.84 L 4152.25 3253.64 L 4152.66 3253.23 L 4152.86 3252.61 L 4152.86 3249.55 M 4154.21 3249.55 L 4155.85 3253.84 M 4157.49 3249.55 L 4155.85 3253.84" fill="none" stroke-width="0.5" c_note="note_name"/></g><g c_partid="part_pcbtext" c_origin="4205.4502,3299.0701" c_rotation="90" c_mirror="" locked="0" layerid="3" c_shapetype="group"><path c_fontSize="4.5" c_fontFamily="" c_text="LLUVIA" d="M 4203.0002 3299.0701 L 4207.2902 3299.0701 M 4207.2902 3299.0701 L 4207.2902 3296.6201 M 4203.0002 3295.2701 L 4207.2902 3295.2701 M 4207.2902 3295.2701 L 4207.2902 3292.8101 M 4203.0002 3291.4601 L 4206.0602 3291.4601 L 4206.6802 3291.2601 L 4207.0902 3290.8501 L 4207.2902 3290.2301 L 4207.2902 3289.8201 L 4207.0902 3289.2101 L 4206.6802 3288.8001 L 4206.0602 3288.6001 L 4203.0002 3288.6001 M 4203.0002 3287.2501 L 4207.2902 3285.6101 M 4203.0002 3283.9701 L 4207.2902 3285.6101 M 4203.0002 3282.6201 L 4207.2902 3282.6201 M 4203.0002 3279.6401 L 4207.2902 3281.2701 M 4203.0002 3279.6401 L 4207.2902 3278.0001 M 4205.8602 3280.6601 L 4205.8602 3278.6201" fill="none" stroke-width="0.7" c_note="note_pre"/></g><g c_partid="part_pcbtext" c_origin="4198,3292" c_rotation="90" c_mirror="" locked="0" layerid="3" c_shapetype="group" display="none"><path c_fontSize="4.5" c_fontFamily="" c_text="LLUVIA" d="M 4195.55 3292 L 4199.84 3292 M 4199.84 3292 L 4199.84 3289.55 M 4195.55 3288.2 L 4199.84 3288.2 M 4199.84 3288.2 L 4199.84 3285.74 M 4195.55 3284.39 L 4198.61 3284.39 L 4199.23 3284.19 L 4199.64 3283.78 L 4199.84 3283.16 L 4199.84 3282.75 L 4199.64 3282.14 L 4199.23 3281.73 L 4198.61 3281.53 L 4195.55 3281.53 M 4195.55 3280.18 L 4199.84 3278.54 M 4195.55 3276.9 L 4199.84 3278.54 M 4195.55 3275.55 L 4199.84 3275.55 M 4195.55 3272.57 L 4199.84 3274.2 M 4195.55 3272.57 L 4199.84 3270.93 M 4198.41 3273.59 L 4198.41 3271.55" fill="none" stroke-width="0.5" c_note="note_name"/></g><g c_partid="part_pcbtext" c_origin="4205.4502,3376.6799" c_rotation="90" c_mirror="" locked="0" layerid="3" c_shapetype="group"><path c_fontSize="4.5" c_fontFamily="" c_text="VIENTO" d="M 4203.0002 3376.6799 L 4207.2902 3375.0399 M 4203.0002 3373.4099 L 4207.2902 3375.0399 M 4203.0002 3372.0599 L 4207.2902 3372.0599 M 4203.0002 3370.7099 L 4207.2902 3370.7099 M 4203.0002 3370.7099 L 4203.0002 3368.0499 M 4205.0402 3370.7099 L 4205.0402 3369.0699 M 4207.2902 3370.7099 L 4207.2902 3368.0499 M 4203.0002 3366.6999 L 4207.2902 3366.6999 M 4203.0002 3366.6999 L 4207.2902 3363.8299 M 4203.0002 3363.8299 L 4207.2902 3363.8299 M 4203.0002 3361.0499 L 4207.2902 3361.0499 M 4203.0002 3362.4799 L 4203.0002 3359.6199 M 4203.0002 3357.0399 L 4203.2002 3357.4499 L 4203.6102 3357.8599 L 4204.0202 3358.0699 L 4204.6302 3358.2699 L 4205.6502 3358.2699 L 4206.2702 3358.0699 L 4206.6802 3357.8599 L 4207.0902 3357.4499 L 4207.2902 3357.0399 L 4207.2902 3356.2299 L 4207.0902 3355.8199 L 4206.6802 3355.4099 L 4206.2702 3355.1999 L 4205.6502 3354.9999 L 4204.6302 3354.9999 L 4204.0202 3355.1999 L 4203.6102 3355.4099 L 4203.2002 3355.8199 L 4203.0002 3356.2299 L 4203.0002 3357.0399" fill="none" stroke-width="0.7" c_note="note_pre"/></g><g c_partid="part_pcbtext" c_origin="4198,3369" c_rotation="90" c_mirror="" locked="0" layerid="3" c_shapetype="group" display="none"><path c_fontSize="4.5" c_fontFamily="" c_text="VIENTO" d="M 4195.55 3369 L 4199.84 3367.36 M 4195.55 3365.73 L 4199.84 3367.36 M 4195.55 3364.38 L 4199.84 3364.38 M 4195.55 3363.03 L 4199.84 3363.03 M 4195.55 3363.03 L 4195.55 3360.37 M 4197.59 3363.03 L 4197.59 3361.39 M 4199.84 3363.03 L 4199.84 3360.37 M 4195.55 3359.02 L 4199.84 3359.02 M 4195.55 3359.02 L 4199.84 3356.15 M 4195.55 3356.15 L 4199.84 3356.15 M 4195.55 3353.37 L 4199.84 3353.37 M 4195.55 3354.8 L 4195.55 3351.94 M 4195.55 3349.36 L 4195.75 3349.77 L 4196.16 3350.18 L 4196.57 3350.39 L 4197.18 3350.59 L 4198.2 3350.59 L 4198.82 3350.39 L 4199.23 3350.18 L 4199.64 3349.77 L 4199.84 3349.36 L 4199.84 3348.55 L 4199.64 3348.14 L 4199.23 3347.73 L 4198.82 3347.52 L 4198.2 3347.32 L 4197.18 3347.32 L 4196.57 3347.52 L 4196.16 3347.73 L 4195.75 3348.14 L 4195.55 3348.55 L 4195.55 3349.36" fill="none" stroke-width="0.5" c_note="note_name"/></g><g c_partid="part_pcbtext" c_origin="4164,3345.45" c_rotation="0" c_mirror="" locked="0" layerid="3" c_shapetype="group"><path c_fontSize="4.5" c_fontFamily="" c_text="10K" d="M 4164 3343.81 L 4164.41 3343.61 L 4165.02 3343 L 4165.02 3347.29 M 4167.6 3343 L 4166.99 3343.2 L 4166.58 3343.81 L 4166.37 3344.84 L 4166.37 3345.45 L 4166.58 3346.47 L 4166.99 3347.09 L 4167.6 3347.29 L 4168.01 3347.29 L 4168.62 3347.09 L 4169.03 3346.47 L 4169.24 3345.45 L 4169.24 3344.84 L 4169.03 3343.81 L 4168.62 3343.2 L 4168.01 3343 L 4167.6 3343 M 4170.59 3343 L 4170.59 3347.29 M 4173.45 3343 L 4170.59 3345.86 M 4171.61 3344.84 L 4173.45 3347.29" fill="none" stroke-width="0.7" c_note="note_pre"/></g><g c_partid="part_pcbtext" c_origin="4167,3336" c_rotation="0" c_mirror="" locked="0" layerid="3" c_shapetype="group" display="none"><path c_fontSize="4.5" c_fontFamily="" c_text="10k" d="M 4167 3334.36 L 4167.41 3334.16 L 4168.02 3333.55 L 4168.02 3337.84 M 4170.6 3333.55 L 4169.99 3333.75 L 4169.58 3334.36 L 4169.37 3335.39 L 4169.37 3336 L 4169.58 3337.02 L 4169.99 3337.64 L 4170.6 3337.84 L 4171.01 3337.84 L 4171.62 3337.64 L 4172.03 3337.02 L 4172.24 3336 L 4172.24 3335.39 L 4172.03 3334.36 L 4171.62 3333.75 L 4171.01 3333.55 L 4170.6 3333.55 M 4173.59 3333.55 L 4173.59 3337.84 M 4175.63 3334.98 L 4173.59 3337.02 M 4174.4 3336.2 L 4175.84 3337.84" fill="none" stroke-width="0.5" c_note="note_name"/></g><g c_partid="part_pcbtext" c_origin="4165,3363.45" c_rotation="0" c_mirror="" locked="0" layerid="3" c_shapetype="group"><path c_fontSize="4.5" c_fontFamily="" c_text="10K" d="M 4165 3361.81 L 4165.41 3361.61 L 4166.02 3361 L 4166.02 3365.29 M 4168.6 3361 L 4167.99 3361.2 L 4167.58 3361.81 L 4167.37 3362.84 L 4167.37 3363.45 L 4167.58 3364.47 L 4167.99 3365.09 L 4168.6 3365.29 L 4169.01 3365.29 L 4169.62 3365.09 L 4170.03 3364.47 L 4170.24 3363.45 L 4170.24 3362.84 L 4170.03 3361.81 L 4169.62 3361.2 L 4169.01 3361 L 4168.6 3361 M 4171.59 3361 L 4171.59 3365.29 M 4174.45 3361 L 4171.59 3363.86 M 4172.61 3362.84 L 4174.45 3365.29" fill="none" stroke-width="0.7" c_note="note_pre"/></g><g c_partid="part_pcbtext" c_origin="4167,3354" c_rotation="0" c_mirror="" locked="0" layerid="3" c_shapetype="group" display="none"><path c_fontSize="4.5" c_fontFamily="" c_text="10k" d="M 4167 3352.36 L 4167.41 3352.16 L 4168.02 3351.55 L 4168.02 3355.84 M 4170.6 3351.55 L 4169.99 3351.75 L 4169.58 3352.36 L 4169.37 3353.39 L 4169.37 3354 L 4169.58 3355.02 L 4169.99 3355.64 L 4170.6 3355.84 L 4171.01 3355.84 L 4171.62 3355.64 L 4172.03 3355.02 L 4172.24 3354 L 4172.24 3353.39 L 4172.03 3352.36 L 4171.62 3351.75 L 4171.01 3351.55 L 4170.6 3351.55 M 4173.59 3351.55 L 4173.59 3355.84 M 4175.63 3352.98 L 4173.59 3355.02 M 4174.4 3354.2 L 4175.84 3355.84" fill="none" stroke-width="0.5" c_note="note_name"/></g><g c_partid="part_pcbtext" c_origin="4164,3298.45" c_rotation="0" c_mirror="" locked="0" layerid="3" c_shapetype="group"><path c_fontSize="4.5" c_fontFamily="" c_text="10K" d="M 4164 3296.81 L 4164.41 3296.61 L 4165.02 3296 L 4165.02 3300.29 M 4167.6 3296 L 4166.99 3296.2 L 4166.58 3296.81 L 4166.37 3297.84 L 4166.37 3298.45 L 4166.58 3299.47 L 4166.99 3300.09 L 4167.6 3300.29 L 4168.01 3300.29 L 4168.62 3300.09 L 4169.03 3299.47 L 4169.24 3298.45 L 4169.24 3297.84 L 4169.03 3296.81 L 4168.62 3296.2 L 4168.01 3296 L 4167.6 3296 M 4170.59 3296 L 4170.59 3300.29 M 4173.45 3296 L 4170.59 3298.86 M 4171.61 3297.84 L 4173.45 3300.29" fill="none" stroke-width="0.7" c_note="note_pre"/></g><g c_partid="part_pcbtext" c_origin="4167,3289" c_rotation="0" c_mirror="" locked="0" layerid="3" c_shapetype="group" display="none"><path c_fontSize="4.5" c_fontFamily="" c_text="10k" d="M 4167 3287.36 L 4167.41 3287.16 L 4168.02 3286.55 L 4168.02 3290.84 M 4170.6 3286.55 L 4169.99 3286.75 L 4169.58 3287.36 L 4169.37 3288.39 L 4169.37 3289 L 4169.58 3290.02 L 4169.99 3290.64 L 4170.6 3290.84 L 4171.01 3290.84 L 4171.62 3290.64 L 4172.03 3290.02 L 4172.24 3289 L 4172.24 3288.39 L 4172.03 3287.36 L 4171.62 3286.75 L 4171.01 3286.55 L 4170.6 3286.55 M 4173.59 3286.55 L 4173.59 3290.84 M 4175.63 3287.98 L 4173.59 3290.02 M 4174.4 3289.2 L 4175.84 3290.84" fill="none" stroke-width="0.5" c_note="note_name"/></g><polyline points="4088.8189 3390.4409 4088.8189 3269.1811" stroke-width="0.7874" c_shapetype="line" stroke-linecap="round" fill="none" layerid="3" locked="0"/><polyline points="4125.8267 3390.4409 4077.0078 3390.4409 4077.0078 3269.1811 4125.8267 3269.1811 4125.8267 3390.4409" stroke-width="0.7874" c_shapetype="line" stroke-linecap="round" fill="none" layerid="3" locked="0"/><polyline points="4053.3858 3361.9567 4053.3858 3297.6653" stroke-width="0.7874" c_shapetype="line" stroke-linecap="round" fill="none" layerid="3" locked="0"/><polyline points="4088.8189 3302.2519 4125.8267 3302.2519" stroke-width="0.7874" c_shapetype="line" stroke-linecap="round" fill="none" layerid="3" locked="0"/><polyline points="4088.8189 3357.3701 4125.8267 3357.3701" stroke-width="0.7874" c_shapetype="line" stroke-linecap="round" fill="none" layerid="3" locked="0"/><polyline points="4056.1417 3364.7126 4074.2519 3364.7126" stroke-width="0.7874" c_shapetype="line" stroke-linecap="round" fill="none" layerid="3" locked="0"/><polyline points="4056.1417 3294.9094 4074.2519 3294.9094" stroke-width="0.7874" c_shapetype="line" stroke-linecap="round" fill="none" layerid="3" locked="0"/><polyline points="4142.5 3265 4135 3265 4135 3275 4165 3275 4165 3265" stroke-width="0.8" c_shapetype="line" stroke-linecap="round" fill="none" layerid="3" locked="0"/><polyline points="4165 3265 4142.5 3265" stroke-width="0.79921" c_shapetype="line" stroke-linecap="round" fill="none" layerid="3" locked="0"/><polyline points="4252 3276 4294 3276" stroke-width="1.524" c_shapetype="line" stroke-linecap="round" fill="none" layerid="3" locked="0"/><polyline points="4294 3308 4252 3308" stroke-width="1.524" c_shapetype="line" stroke-linecap="round" fill="none" layerid="3" locked="0"/><polyline points="4294 3284 4252 3284" stroke-width="1.524" c_shapetype="line" stroke-linecap="round" fill="none" layerid="3" locked="0"/><polyline points="4252 3312.01 4294 3312.01" stroke-width="1.524" c_shapetype="line" stroke-linecap="round" fill="none" layerid="3" locked="0"/><polyline points="4252 3312.01 4252 3271.99" stroke-width="1.524" c_shapetype="line" stroke-linecap="round" fill="none" layerid="3" locked="0"/><polyline points="4252 3271.99 4294 3271.99" stroke-width="1.524" c_shapetype="line" stroke-linecap="round" fill="none" layerid="3" locked="0"/><polyline points="4294 3300 4252 3300" stroke-width="1.524" c_shapetype="line" stroke-linecap="round" fill="none" layerid="3" locked="0"/><polyline points="4294 3261.21 4294 3322.79" stroke-width="1.524" c_shapetype="line" stroke-linecap="round" fill="none" layerid="3" locked="0"/><polyline points="4294 3322.79 4211.2 3322.79" stroke-width="1.524" c_shapetype="line" stroke-linecap="round" fill="none" layerid="3" locked="0"/><polyline points="4211.2 3322.79 4211.2 3261.21" stroke-width="1.524" c_shapetype="line" stroke-linecap="round" fill="none" layerid="3" locked="0"/><polyline points="4211.2 3261.21 4294 3261.21" stroke-width="1.524" c_shapetype="line" stroke-linecap="round" fill="none" layerid="3" locked="0"/><polyline points="4252 3353 4294 3353" stroke-width="1.524" c_shapetype="line" stroke-linecap="round" fill="none" layerid="3" locked="0"/><polyline points="4294 3385 4252 3385" stroke-width="1.524" c_shapetype="line" stroke-linecap="round" fill="none" layerid="3" locked="0"/><polyline points="4294 3361 4252 3361" stroke-width="1.524" c_shapetype="line" stroke-linecap="round" fill="none" layerid="3" locked="0"/><polyline points="4252 3389.01 4294 3389.01" stroke-width="1.524" c_shapetype="line" stroke-linecap="round" fill="none" layerid="3" locked="0"/><polyline points="4252 3389.01 4252 3348.99" stroke-width="1.524" c_shapetype="line" stroke-linecap="round" fill="none" layerid="3" locked="0"/><polyline points="4252 3348.99 4294 3348.99" stroke-width="1.524" c_shapetype="line" stroke-linecap="round" fill="none" layerid="3" locked="0"/><polyline points="4294 3377 4252 3377" stroke-width="1.524" c_shapetype="line" stroke-linecap="round" fill="none" layerid="3" locked="0"/><polyline points="4294 3338.21 4294 3399.79" stroke-width="1.524" c_shapetype="line" stroke-linecap="round" fill="none" layerid="3" locked="0"/><polyline points="4294 3399.79 4211.2 3399.79" stroke-width="1.524" c_shapetype="line" stroke-linecap="round" fill="none" layerid="3" locked="0"/><polyline points="4211.2 3399.79 4211.2 3338.21" stroke-width="1.524" c_shapetype="line" stroke-linecap="round" fill="none" layerid="3" locked="0"/><polyline points="4211.2 3338.21 4294 3338.21" stroke-width="1.524" c_shapetype="line" stroke-linecap="round" fill="none" layerid="3" locked="0"/><polyline points="4158 3350 4178 3350" stroke-width="1" c_shapetype="line" stroke-linecap="round" fill="none" layerid="3" locked="0"/><polyline points="4178 3350 4178 3353" stroke-width="1" c_shapetype="line" stroke-linecap="round" fill="none" layerid="3" locked="0"/><polyline points="4178 3353 4178 3356" stroke-width="1" c_shapetype="line" stroke-linecap="round" fill="none" layerid="3" locked="0"/><polyline points="4178 3356 4158 3356" stroke-width="1" c_shapetype="line" stroke-linecap="round" fill="none" layerid="3" locked="0"/><polyline points="4158 3356 4158 3353" stroke-width="1" c_shapetype="line" stroke-linecap="round" fill="none" layerid="3" locked="0"/><polyline points="4158 3353 4158 3350" stroke-width="1" c_shapetype="line" stroke-linecap="round" fill="none" layerid="3" locked="0"/><polyline points="4178 3353 4179 3353" stroke-width="1" c_shapetype="line" stroke-linecap="round" fill="none" layerid="3" locked="0"/><polyline points="4158 3353 4157 3353" stroke-width="1" c_shapetype="line" stroke-linecap="round" fill="none" layerid="3" locked="0"/><polyline points="4158 3368 4178 3368" stroke-width="1" c_shapetype="line" stroke-linecap="round" fill="none" layerid="3" locked="0"/><polyline points="4178 3368 4178 3371" stroke-width="1" c_shapetype="line" stroke-linecap="round" fill="none" layerid="3" locked="0"/><polyline points="4178 3371 4178 3374" stroke-width="1" c_shapetype="line" stroke-linecap="round" fill="none" layerid="3" locked="0"/><polyline points="4178 3374 4158 3374" stroke-width="1" c_shapetype="line" stroke-linecap="round" fill="none" layerid="3" locked="0"/><polyline points="4158 3374 4158 3371" stroke-width="1" c_shapetype="line" stroke-linecap="round" fill="none" layerid="3" locked="0"/><polyline points="4158 3371 4158 3368" stroke-width="1" c_shapetype="line" stroke-linecap="round" fill="none" layerid="3" locked="0"/><polyline points="4178 3371 4179 3371" stroke-width="1" c_shapetype="line" stroke-linecap="round" fill="none" layerid="3" locked="0"/><polyline points="4158 3371 4157 3371" stroke-width="1" c_shapetype="line" stroke-linecap="round" fill="none" layerid="3" locked="0"/><polyline points="4158 3303 4178 3303" stroke-width="1" c_shapetype="line" stroke-linecap="round" fill="none" layerid="3" locked="0"/><polyline points="4178 3303 4178 3306" stroke-width="1" c_shapetype="line" stroke-linecap="round" fill="none" layerid="3" locked="0"/><polyline points="4178 3306 4178 3309" stroke-width="1" c_shapetype="line" stroke-linecap="round" fill="none" layerid="3" locked="0"/><polyline points="4178 3309 4158 3309" stroke-width="1" c_shapetype="line" stroke-linecap="round" fill="none" layerid="3" locked="0"/><polyline points="4158 3309 4158 3306" stroke-width="1" c_shapetype="line" stroke-linecap="round" fill="none" layerid="3" locked="0"/><polyline points="4158 3306 4158 3303" stroke-width="1" c_shapetype="line" stroke-linecap="round" fill="none" layerid="3" locked="0"/><polyline points="4178 3306 4179 3306" stroke-width="1" c_shapetype="line" stroke-linecap="round" fill="none" layerid="3" locked="0"/><polyline points="4158 3306 4157 3306" stroke-width="1" c_shapetype="line" stroke-linecap="round" fill="none" layerid="3" locked="0"/><path d="M4300,3250L4300,3290.9091M4300,3369.0909L4300,3410M4297,3255L4300,3250L4303,3255M4297,3405L4300,3410L4303,3405M 4294.5491 3362.5409L4300.9091 3367.0909 L4300.9091 3360.2709 M 4294.5491 3362.5409L4304.0891 3362.5409 M 4294.5491 3354.5409L4294.9991 3355.9109 L4296.3591 3356.8209 L4298.6391 3357.2709 L4299.9991 3357.2709 L4302.2691 3356.8209 L4303.6391 3355.9109 L4304.0891 3354.5409 L4304.0891 3353.6409 L4303.6391 3352.2709 L4302.2691 3351.3609 L4299.9991 3350.9109 L4298.6391 3350.9109 L4296.3591 3351.3609 L4294.9991 3352.2709 L4294.5491 3353.6409 L4294.5491 3354.5409 M 4301.8191 3347.4509L4302.2691 3347.9109 L4302.7291 3347.4509 L4302.2691 3347.0009 L4301.8191 3347.4509 M 4295.9091 3338.5409L4294.9991 3339.0009 L4294.5491 3340.3609 L4294.5491 3341.2709 L4294.9991 3342.6409 L4296.3591 3343.5409 L4298.6391 3344.0009 L4300.9091 3344.0009 L4302.7291 3343.5409 L4303.6391 3342.6409 L4304.0891 3341.2709 L4304.0891 3340.8209 L4303.6391 3339.4509 L4302.7291 3338.5409 L4301.3591 3338.0909 L4300.9091 3338.0909 L4299.5491 3338.5409 L4298.6391 3339.4509 L4298.1791 3340.8209 L4298.1791 3341.2709 L4298.6391 3342.6409 L4299.5491 3343.5409 L4300.9091 3344.0009 M 4294.5491 3330.5409L4300.9091 3335.0909 L4300.9091 3328.2709 M 4294.5491 3330.5409L4304.0891 3330.5409 M 4294.5491 3322.5409L4294.9991 3323.9109 L4296.3591 3324.8209 L4298.6391 3325.2709 L4299.9991 3325.2709 L4302.2691 3324.8209 L4303.6391 3323.9109 L4304.0891 3322.5409 L4304.0891 3321.6409 L4303.6391 3320.2709 L4302.2691 3319.3609 L4299.9991 3318.9109 L4298.6391 3318.9109 L4296.3591 3319.3609 L4294.9991 3320.2709 L4294.5491 3321.6409 L4294.5491 3322.5409 M 4297.7291 3315.9109L4304.0891 3315.9109 M 4299.5491 3315.9109L4298.1791 3314.5409 L4297.7291 3313.6409 L4297.7291 3312.2709 L4298.1791 3311.3609 L4299.5491 3310.9109 L4304.0891 3310.9109 M 4299.5491 3310.9109L4298.1791 3309.5409 L4297.7291 3308.6409 L4297.7291 3307.2709 L4298.1791 3306.3609 L4299.5491 3305.9109 L4304.0891 3305.9109 M 4297.7291 3302.9109L4304.0891 3302.9109 M 4299.5491 3302.9109L4298.1791 3301.5409 L4297.7291 3300.6409 L4297.7291 3299.2709 L4298.1791 3298.3609 L4299.5491 3297.9109 L4304.0891 3297.9109 M 4299.5491 3297.9109L4298.1791 3296.5409 L4297.7291 3295.6409 L4297.7291 3294.2709 L4298.1791 3293.3609 L4299.5491 3292.9109 L4304.0891 3292.9109 " stroke-width="1" fill="none" c_shapetype="group" layerid="3" c_fontSize="" locked="0"/><path d="M4080,3239L4143.1823,3239.3159M4216.8177,3239.6841L4280,3240M4084.9849,3242.025L4080,3239L4085.0149,3236.025M4274.9851,3242.975L4280,3240L4275.0151,3236.975M 4150.6672 3233.8974L4146.1172 3233.8746 L4145.6468 3237.9623 L4146.099 3237.5146 L4147.4713 3237.0614 L4148.8313 3237.0682 L4150.189 3237.535 L4151.0944 3238.4495 L4151.5476 3239.8118 L4151.5431 3240.7218 L4151.0763 3242.0795 L4150.1617 3242.9849 L4148.7995 3243.4381 L4147.4395 3243.4313 L4146.0718 3242.9645 L4145.624 3242.5122 L4145.1686 3241.6 M 4157.2971 3233.9305L4155.9348 3234.3837 L4155.018 3235.7391 L4154.5567 3238.0069 L4154.5498 3239.3768 L4154.9885 3241.6491 L4155.8917 3243.0136 L4157.2494 3243.4804 L4158.1593 3243.4849 L4159.5316 3243.0318 L4160.4484 3241.6764 L4160.9098 3239.4086 L4160.9166 3238.0387 L4160.478 3235.7664 L4159.5748 3234.4019 L4158.2071 3233.9351 L4157.2971 3233.9305 M 4164.3507 3241.2359L4163.8984 3241.6936 L4164.3461 3242.1459 L4164.8084 3241.6982 L4164.3507 3241.2359 M 4170.1169 3233.9946L4168.7547 3234.4478 L4168.2901 3235.3555 L4168.2856 3236.2555 L4168.7411 3237.1678 L4169.6487 3237.6323 L4171.4665 3238.0914 L4172.8242 3238.5582 L4173.7296 3239.4727 L4174.175 3240.385 L4174.1682 3241.745 L4173.7137 3242.6527 L4173.2515 3243.1004 L4171.8892 3243.5536 L4170.0692 3243.5445 L4168.7115 3243.0777 L4168.2538 3242.6254 L4167.8083 3241.7132 L4167.8151 3240.3532 L4168.2697 3239.4454 L4169.1842 3238.54 L4170.5565 3238.0869 L4172.3687 3237.6459 L4173.281 3237.1905 L4173.7455 3236.2828 L4173.75 3235.3828 L4173.2946 3234.4705 L4171.9369 3234.0037 L4170.1169 3233.9946 M 4179.9368 3234.0437L4178.5745 3234.4969 L4177.6577 3235.8523 L4177.1864 3238.12 L4177.1796 3239.49 L4177.6282 3241.7623 L4178.5314 3243.1268 L4179.8891 3243.5936 L4180.7991 3243.5981 L4182.1613 3243.1449 L4183.0781 3241.7895 L4183.5495 3239.5218 L4183.5563 3238.1519 L4183.1077 3235.8796 L4182.2045 3234.515 L4180.8468 3234.0483 L4179.9368 3234.0437 M 4186.5676 3235.8969L4187.4799 3235.4514 L4188.8467 3234.0883 L4188.799 3243.6381 M 4191.8308 3237.2832L4191.7989 3243.6531 M 4191.8217 3239.1032L4193.1885 3237.75 L4194.1007 3237.2946 L4195.4707 3237.3014 L4196.3684 3237.7659 L4196.8216 3239.1282 L4196.7989 3243.6781 M 4196.8216 3239.1282L4198.1884 3237.775 L4199.1007 3237.3196 L4200.4707 3237.3264 L4201.3684 3237.7909 L4201.8215 3239.1532 L4201.7988 3243.7031 M 4204.8306 3237.3482L4204.7988 3243.7181 M 4204.8215 3239.1682L4206.1883 3237.815 L4207.1006 3237.3596 L4208.4706 3237.3664 L4209.3683 3237.8309 L4209.8214 3239.1932 L4209.7987 3243.7431 M 4209.8214 3239.1932L4211.1882 3237.84 L4212.1005 3237.3846 L4213.4705 3237.3914 L4214.3682 3237.8559 L4214.8214 3239.2182 L4214.7986 3243.7681 " stroke-width="1" fill="none" c_shapetype="group" layerid="3" c_fontSize="" locked="0"/><path d="M 4076.9894 3367.451 A 2.7362 2.7362 0 0 0 4074.2494 3364.711" locked="0" c_shapetype="line" fill="none" stroke-width="0.7874" c_helper_type="arc2" layerid="3"/><path d="M 4053.3894 3361.961 A 2.7362 2.7362 0 0 0 4056.1194 3364.691" locked="0" c_shapetype="line" fill="none" stroke-width="0.7874" c_helper_type="arc2" layerid="3"/><path d="M 4074.2494 3294.911 A 2.7362 2.7362 0 0 0 4076.9894 3292.171" locked="0" c_shapetype="line" fill="none" stroke-width="0.7874" c_helper_type="arc2" layerid="3"/><path d="M 4056.1194 3294.931 A 2.7362 2.7362 0 0 0 4053.3894 3297.661" locked="0" c_shapetype="line" fill="none" stroke-width="0.7874" c_helper_type="arc2" layerid="3"/></g></svg>
